<?xml version="1.0" encoding="iso-8859-1"?>
<!-- Generator: Adobe Illustrator 19.0.0, SVG Export Plug-In . SVG Version: 6.00 Build 0)  -->
<svg version="1.1" id="Layer_1" xmlns="http://www.w3.org/2000/svg" xmlns:xlink="http://www.w3.org/1999/xlink" x="0px" y="0px"
	 viewBox="0 0 504.986 504.986" style="enable-background:new 0 0 504.986 504.986;" xml:space="preserve">
<g>
	<g>
		<path d="M252.493,0C112.921,0,0,112.921,0,252.493s112.921,252.493,252.493,252.493s252.493-112.921,252.493-252.493
			S392.066,0,252.493,0z M340.164,125.545c7.715,0,14.027,6.312,14.027,14.027c0,7.715-6.312,14.027-14.027,14.027
			c-7.715,0-14.027-6.312-14.027-14.027C326.137,131.858,332.449,125.545,340.164,125.545z M252.493,241.973
			c-7.715,0-14.027-6.312-14.027-14.027c0-7.715,6.312-14.027,14.027-14.027c7.715,0,14.027,6.312,14.027,14.027
			C266.521,235.66,260.208,241.973,252.493,241.973z M360.504,448.877V298.784l38.575-38.575c5.611,2.806,11.923,4.208,18.236,4.208
			c23.145,0,42.082-18.937,42.082-42.082s-18.937-42.082-42.082-42.082s-42.082,18.937-42.082,42.082
			c0,6.312,1.403,12.625,4.208,18.236l-42.784,42.784c-2.805,2.805-4.208,6.312-4.208,9.819v169.03
			c-21.041,7.715-42.784,12.625-65.929,14.729V267.923c16.131-5.611,28.055-21.041,28.055-39.277
			c0-23.145-18.937-42.082-42.082-42.082s-42.082,18.937-42.082,42.082c0,18.236,11.923,33.666,28.055,39.277v209.008
			c-23.145-1.403-45.589-6.312-65.929-14.729V347.178c0-3.507-1.403-7.014-4.208-9.819l-25.249-25.249
			c2.805-5.611,4.208-11.923,4.208-18.236c0-23.145-18.937-42.082-42.082-42.082s-42.082,18.937-42.082,42.082
			c0,23.145,18.937,42.082,42.082,42.082c6.312,0,12.625-1.403,18.236-4.208l21.041,21.041v96.088
			C75.047,410.301,28.055,336.658,28.055,252.493c0-110.115,79.255-201.293,183.759-220.932v108.011h-18.937
			c-5.611-16.132-21.041-28.055-39.277-28.055c-23.145,0-42.082,18.937-42.082,42.082s18.937,42.082,42.082,42.082
			c18.236,0,33.666-11.923,39.277-28.055h32.964c7.715,0,14.027-6.312,14.027-14.027V28.756c4.208,0,8.416-0.701,12.625-0.701
			c25.951,0,50.499,4.208,73.644,12.625v59.616c-16.132,5.611-28.055,21.041-28.055,39.277c0,23.145,18.937,42.082,42.082,42.082
			s42.082-18.937,42.082-42.082c0-18.236-11.923-33.666-28.055-39.277V52.603c72.943,37.173,122.74,112.921,122.74,199.89
			C476.932,336.658,429.94,411.003,360.504,448.877z M403.989,222.334c0-7.715,6.312-14.027,14.027-14.027
			c7.715,0,14.027,6.312,14.027,14.027c0,7.715-6.312,14.027-14.027,14.027C410.301,236.362,403.989,230.049,403.989,222.334z
			 M119.233,294.575c0,7.715-6.312,14.027-14.027,14.027s-14.027-6.312-14.027-14.027c0-7.715,6.312-14.027,14.027-14.027
			S119.233,286.86,119.233,294.575z M166.926,153.6c0,7.715-6.312,14.027-14.027,14.027c-7.715,0-14.027-6.312-14.027-14.027
			c0-7.715,6.312-14.027,14.027-14.027C161.315,139.573,166.926,145.885,166.926,153.6z"/>
	</g>
</g>
<g>
</g>
<g>
</g>
<g>
</g>
<g>
</g>
<g>
</g>
<g>
</g>
<g>
</g>
<g>
</g>
<g>
</g>
<g>
</g>
<g>
</g>
<g>
</g>
<g>
</g>
<g>
</g>
<g>
</g>
</svg>
