<svg height="512pt" viewBox="0 0 512 512" width="512pt" xmlns="http://www.w3.org/2000/svg"><g fill="#c9f3ff"><path d="m156 92h40v40h-40zm0 0"/><path d="m316 92h40v40h-40zm0 0"/><path d="m236 92h40v40h-40zm0 0"/><path d="m156 380h40v40h-40zm0 0"/><path d="m316 380h40v40h-40zm0 0"/><path d="m236 380h40v40h-40zm0 0"/><path d="m380 156h40v40h-40zm0 0"/><path d="m380 316h40v40h-40zm0 0"/><path d="m380 236h40v40h-40zm0 0"/><path d="m92 156h40v40h-40zm0 0"/><path d="m92 316h40v40h-40zm0 0"/><path d="m92 236h40v40h-40zm0 0"/></g><path d="m192.332031 132h187.667969v248h-187.667969zm0 0" fill="#72d8ff"/><path d="m172 172h168v168h-168zm0 0" fill="#fff"/><path d="m340 162h-168c-5.523438 0-10 4.476562-10 10v168c0 5.523438 4.476562 10 10 10h168c5.523438 0 10-4.476562 10-10v-168c0-5.523438-4.476562-10-10-10zm-10 168h-148v-148h148zm0 0"/><path d="m254.804688 226h41.195312c5.523438 0 10-4.476562 10-10s-4.476562-10-10-10h-41.195312c-5.523438 0-10 4.476562-10 10s4.476562 10 10 10zm0 0"/><path d="m210.671875 226c2.628906 0 5.207031-1.070312 7.066406-2.929688 1.859375-1.859374 2.933594-4.441406 2.933594-7.070312s-1.070313-5.210938-2.933594-7.070312c-1.859375-1.859376-4.4375-2.929688-7.066406-2.929688-2.640625 0-5.210937 1.070312-7.070313 2.929688-1.859374 1.859374-2.929687 4.441406-2.929687 7.070312s1.066406 5.210938 2.929687 7.070312c1.859376 1.859376 4.429688 2.929688 7.070313 2.929688zm0 0"/><path d="m210.667969 266h85.332031c5.523438 0 10-4.476562 10-10s-4.476562-10-10-10h-85.332031c-5.523438 0-10 4.476562-10 10s4.476562 10 10 10zm0 0"/><path d="m210.671875 286c-2.632813 0-5.210937 1.070312-7.070313 2.929688-1.871093 1.859374-2.929687 4.441406-2.929687 7.070312s1.058594 5.210938 2.929687 7.070312c1.859376 1.859376 4.4375 2.929688 7.070313 2.929688 2.628906 0 5.207031-1.070312 7.066406-2.929688 1.859375-1.859374 2.933594-4.441406 2.933594-7.070312s-1.070313-5.210938-2.933594-7.070312c-1.867187-1.859376-4.4375-2.929688-7.066406-2.929688zm0 0"/><path d="m251.859375 286c-2.628906 0-5.210937 1.070312-7.070313 2.929688-1.859374 1.859374-2.929687 4.441406-2.929687 7.070312s1.070313 5.210938 2.929687 7.070312c1.859376 1.859376 4.441407 2.929688 7.070313 2.929688s5.210937-1.070312 7.070313-2.929688c1.871093-1.859374 2.929687-4.441406 2.929687-7.070312s-1.058594-5.210938-2.929687-7.070312c-1.859376-1.859376-4.441407-2.929688-7.070313-2.929688zm0 0"/><path d="m296 286c-2.628906 0-5.210938 1.070312-7.070312 2.929688-1.859376 1.859374-2.929688 4.441406-2.929688 7.070312s1.070312 5.210938 2.929688 7.070312c1.859374 1.859376 4.441406 2.929688 7.070312 2.929688s5.210938-1.070312 7.070312-2.929688c1.859376-1.859374 2.929688-4.441406 2.929688-7.070312s-1.070312-5.210938-2.929688-7.070312c-1.859374-1.859376-4.441406-2.929688-7.070312-2.929688zm0 0"/><path d="m256.128906 20c2.632813 0 5.199219-1.070312 7.070313-2.929688 1.859375-1.859374 2.929687-4.441406 2.929687-7.070312s-1.070312-5.210938-2.929687-7.070312c-1.871094-1.859376-4.4375-2.929688-7.070313-2.929688-2.640625 0-5.207031 1.070312-7.070312 2.929688-1.859375 1.859374-2.929688 4.441406-2.929688 7.070312s1.070313 5.210938 2.929688 7.070312c1.863281 1.859376 4.441406 2.929688 7.070312 2.929688zm0 0"/><path d="m420 286c5.523438 0 10-4.476562 10-10v-9.871094h72c5.523438 0 10-4.480468 10-10 0-5.523437-4.476562-10-10-10h-72v-10.128906c0-5.523438-4.476562-10-10-10h-30v-20h30c5.523438 0 10-4.476562 10-10v-10h47c5.523438 0 10-4.476562 10-10v-23h15c5.523438 0 10-4.476562 10-10s-4.476562-10-10-10h-25c-5.523438 0-10 4.476562-10 10v23h-37v-10c0-5.523438-4.476562-10-10-10h-30v-14c0-5.523438-4.476562-10-10-10h-14v-30c0-5.523438-4.476562-10-10-10h-10v-37h23c5.523438 0 10-4.476562 10-10v-25c0-5.523438-4.476562-10-10-10s-10 4.476562-10 10v15h-23c-5.523438 0-10 4.476562-10 10v47h-10c-5.523438 0-10 4.476562-10 10v30h-20v-30c0-5.523438-4.476562-10-10-10h-9.871094v-31.917969c0-5.519531-4.480468-10-10-10-5.523437 0-10 4.480469-10 10v31.917969h-10.128906c-5.523438 0-10 4.476562-10 10v30h-20v-30c0-5.523438-4.476562-10-10-10h-10v-47c0-5.523438-4.476562-10-10-10h-23v-15c0-5.523438-4.476562-10-10-10s-10 4.476562-10 10v25c0 5.523438 4.476562 10 10 10h23v37h-10c-5.523438 0-10 4.476562-10 10v30h-14c-5.523438 0-10 4.476562-10 10v14h-30c-5.523438 0-10 4.476562-10 10v10h-37v-23c0-5.523438-4.476562-10-10-10h-25c-5.523438 0-10 4.476562-10 10s4.476562 10 10 10h15v23c0 5.523438 4.476562 10 10 10h47v10c0 5.523438 4.476562 10 10 10h30v20h-30c-5.523438 0-10 4.476562-10 10v10.128906h-72c-5.523438 0-10 4.476563-10 10 0 5.519532 4.476562 10 10 10h72v9.871094c0 5.523438 4.476562 10 10 10h30v20h-30c-5.523438 0-10 4.476562-10 10v10h-47c-5.523438 0-10 4.476562-10 10v23h-15c-5.523438 0-10 4.476562-10 10s4.476562 10 10 10h25c5.523438 0 10-4.476562 10-10v-23h37v10c0 5.523438 4.476562 10 10 10h30v14c0 5.523438 4.476562 10 10 10h14v30c0 5.523438 4.476562 10 10 10h10v37h-23c-5.523438 0-10 4.476562-10 10v25c0 5.523438 4.476562 10 10 10s10-4.476562 10-10v-15h23c5.523438 0 10-4.476562 10-10v-47h10c5.523438 0 10-4.476562 10-10v-30h20v30c0 5.523438 4.476562 10 10 10h10.128906v72c0 5.523438 4.476563 10 10 10 5.519532 0 10-4.476562 10-10v-72h9.871094c5.523438 0 10-4.476562 10-10v-30h20v30c0 5.523438 4.476562 10 10 10h10v47c0 5.523438 4.476562 10 10 10h23v15c0 5.523438 4.476562 10 10 10s10-4.476562 10-10v-25c0-5.523438-4.476562-10-10-10h-23v-37h10c5.523438 0 10-4.476562 10-10v-30h14c5.523438 0 10-4.476562 10-10v-14h30c5.523438 0 10-4.476562 10-10v-10h37v23c0 5.523438 4.476562 10 10 10h25c5.523438 0 10-4.476562 10-10s-4.476562-10-10-10h-15v-23c0-5.523438-4.476562-10-10-10h-47v-10c0-5.523438-4.476562-10-10-10h-30v-20zm-10-40v20h-20v-20zm0-80v20h-20v-20zm-84-64h20v20h-20zm-80 0h20v20h-20zm-80 0h20v20h-20zm-64 84v-20h20v20zm0 80v-20h20v20zm0 80v-20h20v20zm84 64h-20v-20h20zm80 0h-20v-20h20zm80 0h-20v-20h20zm24-40h-228v-228h228zm40-44v20h-20v-20zm0 0"/></svg>