<?xml version="1.0" encoding="utf-8"?>
<!-- Generator: Adobe Illustrator 16.0.0, SVG Export Plug-In . SVG Version: 6.00 Build 0)  -->
<!DOCTYPE svg PUBLIC "-//W3C//DTD SVG 1.1//EN" "http://www.w3.org/Graphics/SVG/1.1/DTD/svg11.dtd">
<svg version="1.1" id="Layer_1" xmlns="http://www.w3.org/2000/svg" xmlns:xlink="http://www.w3.org/1999/xlink" x="0px" y="0px"
	 width="24px" height="24px" viewBox="0 0 24 24" enable-background="new 0 0 24 24" xml:space="preserve">
<g>
	<path d="M22.281,8.789V4.519c0.72-0.217,1.25-0.878,1.25-1.668c0-0.965-0.785-1.75-1.75-1.75s-1.75,0.785-1.75,1.75
		c0,0.79,0.53,1.452,1.25,1.668v3.113C19.099,5.482,15.752,4.1,12,4.1S4.901,5.482,2.719,7.632V4.519
		c0.72-0.217,1.25-0.878,1.25-1.668c0-0.965-0.785-1.75-1.75-1.75s-1.75,0.785-1.75,1.75c0,0.79,0.53,1.452,1.25,1.668v4.271
		C0.696,10.176,0.1,11.782,0.1,13.5c0,5.183,5.338,9.4,11.9,9.4s11.9-4.217,11.9-9.4C23.9,11.782,23.304,10.176,22.281,8.789z
		 M21.031,2.85c0-0.414,0.336-0.75,0.75-0.75s0.75,0.336,0.75,0.75s-0.336,0.75-0.75,0.75S21.031,3.264,21.031,2.85z M1.469,2.85
		c0-0.414,0.336-0.75,0.75-0.75s0.75,0.336,0.75,0.75S2.632,3.6,2.219,3.6S1.469,3.264,1.469,2.85z M19.821,17.276
		c0,1.875-1.525,3.4-3.4,3.4H7.579c-1.875,0-3.4-1.525-3.4-3.4V9.724c0-1.875,1.525-3.4,3.4-3.4h8.843c1.875,0,3.4,1.525,3.4,3.4
		V17.276z"/>
	<path d="M10.958,11.166c0-1.424-1.159-2.583-2.583-2.583s-2.583,1.159-2.583,2.583s1.159,2.583,2.583,2.583
		S10.958,12.59,10.958,11.166z M6.792,11.166c0-0.873,0.71-1.583,1.583-1.583s1.583,0.71,1.583,1.583s-0.71,1.583-1.583,1.583
		S6.792,12.039,6.792,11.166z"/>
	<path d="M15.625,8.583c-1.424,0-2.583,1.159-2.583,2.583s1.159,2.583,2.583,2.583s2.583-1.159,2.583-2.583
		S17.049,8.583,15.625,8.583z M15.625,12.75c-0.873,0-1.583-0.71-1.583-1.583s0.71-1.583,1.583-1.583s1.583,0.71,1.583,1.583
		S16.498,12.75,15.625,12.75z"/>
	<path d="M15.917,15.667H8.084c-0.781,0-1.417,0.636-1.417,1.417S7.303,18.5,8.084,18.5h7.833c0.781,0,1.416-0.635,1.416-1.417
		S16.698,15.667,15.917,15.667z M15.917,17.5H8.084c-0.23,0-0.417-0.187-0.417-0.417c0-0.23,0.187-0.417,0.417-0.417h7.833
		c0.229,0,0.416,0.187,0.416,0.417C16.333,17.313,16.146,17.5,15.917,17.5z"/>
</g>
</svg>
