<?xml version="1.0" encoding="iso-8859-1"?>
<!-- Generator: Adobe Illustrator 18.0.0, SVG Export Plug-In . SVG Version: 6.00 Build 0)  -->
<!DOCTYPE svg PUBLIC "-//W3C//DTD SVG 1.1//EN" "http://www.w3.org/Graphics/SVG/1.1/DTD/svg11.dtd">
<svg version="1.1" id="Capa_1" xmlns="http://www.w3.org/2000/svg" xmlns:xlink="http://www.w3.org/1999/xlink" x="0px" y="0px"
	 viewBox="0 0 426.014 426.014" style="enable-background:new 0 0 426.014 426.014;" xml:space="preserve">
<g>
	<path d="M292.333,292.708H134.451c-2.209,0-4-1.791-4-4s1.791-4,4-4h157.881c2.209,0,4,1.791,4,4S294.542,292.708,292.333,292.708z
		"/>
	<path d="M292.333,310.527H134.451c-2.209,0-4-1.791-4-4s1.791-4,4-4h157.881c2.209,0,4,1.791,4,4S294.542,310.527,292.333,310.527z
		"/>
	<path d="M292.333,328.347H134.451c-2.209,0-4-1.791-4-4s1.791-4,4-4h157.881c2.209,0,4,1.791,4,4S294.542,328.347,292.333,328.347z
		"/>
	<path d="M292.333,346.167H134.451c-2.209,0-4-1.791-4-4s1.791-4,4-4h157.881c2.209,0,4,1.791,4,4S294.542,346.167,292.333,346.167z
		"/>
	<path d="M292.333,363.987H134.451c-2.209,0-4-1.791-4-4s1.791-4,4-4h157.881c2.209,0,4,1.791,4,4S294.542,363.987,292.333,363.987z
		"/>
	<path d="M292.333,381.807H134.451c-2.209,0-4-1.791-4-4s1.791-4,4-4h157.881c2.209,0,4,1.791,4,4S294.542,381.807,292.333,381.807z
		"/>
</g>
<g>
	<path d="M313.045,260.528H113.74c-2.209,0-4,1.791-4,4v137.458c0,2.209,1.791,4,4,4h199.305c2.209,0,4-1.791,4-4V264.528
		C317.045,262.319,315.254,260.528,313.045,260.528z M309.045,397.986H117.74V268.528h191.305V397.986z"/>
	<path d="M125.499,174.772c0.792,0.922,1.911,1.395,3.037,1.395c0.922,0,1.849-0.317,2.604-0.965
		c1.676-1.439,1.869-3.964,0.43-5.641l-7.26-8.457h23.299c2.209,0,4-1.791,4-4s-1.791-4-4-4h-23.299l7.26-8.456
		c1.439-1.676,1.247-4.201-0.429-5.64c-1.676-1.439-4.202-1.247-5.64,0.429l-12.932,15.062c-1.287,1.499-1.287,3.712,0,5.211
		L125.499,174.772z"/>
	<path d="M125.499,229.721c0.792,0.922,1.911,1.395,3.037,1.395c0.922,0,1.849-0.317,2.604-0.965
		c1.676-1.439,1.869-3.964,0.43-5.641l-7.26-8.457h23.299c2.209,0,4-1.791,4-4s-1.791-4-4-4h-23.299l7.26-8.456
		c1.439-1.676,1.247-4.201-0.429-5.64c-1.676-1.439-4.202-1.247-5.64,0.429l-12.932,15.062c-1.287,1.499-1.287,3.712,0,5.211
		L125.499,229.721z"/>
	<path d="M279.176,216.053h23.299l-7.26,8.457c-1.438,1.676-1.247,4.201,0.43,5.64c0.755,0.648,1.682,0.965,2.604,0.965
		c1.126,0,2.246-0.473,3.037-1.395l12.932-15.062c1.286-1.499,1.286-3.712,0-5.211l-12.932-15.062
		c-1.44-1.676-3.965-1.868-5.641-0.429c-1.677,1.439-1.868,3.964-0.43,5.64l7.26,8.456h-23.299c-2.209,0-4,1.791-4,4
		S276.967,216.053,279.176,216.053z"/>
	<path d="M279.176,161.104h23.299l-7.26,8.457c-1.438,1.676-1.247,4.201,0.43,5.64c0.755,0.648,1.682,0.965,2.604,0.965
		c1.126,0,2.246-0.473,3.037-1.395l12.932-15.062c1.286-1.499,1.286-3.712,0-5.211l-12.932-15.062
		c-1.44-1.676-3.965-1.868-5.641-0.429c-1.677,1.439-1.868,3.964-0.43,5.64l7.26,8.456h-23.299c-2.209,0-4,1.791-4,4
		S276.967,161.104,279.176,161.104z"/>
	<path d="M350.099,177.746c2.209,0,4-1.791,4-4v-33.283c0-2.209-1.791-4-4-4H336.57v-9.739c0-7.944-6.142-14.47-13.925-15.107V0
		H104.149v111.617c-7.787,0.633-13.934,7.16-13.934,15.108v9.739H76.689c-2.209,0-4,1.791-4,4v33.283c0,2.209,1.791,4,4,4h13.526
		v11.866h-14.3c-2.209,0-4,1.791-4,4v33.283c0,2.209,1.791,4,4,4h14.3v179.949c0,8.365,6.806,15.17,15.17,15.17h216.014
		c8.365,0,15.171-6.806,15.171-15.17V230.895h13.529c2.209,0,4-1.791,4-4v-33.283c0-2.209-1.791-4-4-4H336.57v-11.866H350.099z
		 M80.689,169.746v-25.283h9.526v25.283H80.689z M79.915,222.895v-25.283h10.3v25.283H79.915z M314.645,8v103.554H112.149V8H314.645
		z M328.57,410.844c0,3.954-3.217,7.17-7.171,7.17H105.385c-3.954,0-7.17-3.217-7.17-7.17V126.725c0-3.954,3.217-7.17,7.17-7.17
		h216.014c3.954,0,7.171,3.217,7.171,7.17V410.844z M346.099,144.463v25.283h-9.529v-25.283H346.099z M346.099,197.612v25.283
		h-9.529v-25.283H346.099z"/>
	<path d="M138.603,90.423c11.167,0,20.252-9.085,20.252-20.252s-9.085-20.252-20.252-20.252s-20.252,9.085-20.252,20.252
		S127.436,90.423,138.603,90.423z M134.603,58.602v6.151c0,2.209,1.791,4,4,4s4-1.791,4-4v-6.151
		c4.795,1.663,8.252,6.215,8.252,11.568c0,6.756-5.497,12.252-12.252,12.252s-12.252-5.497-12.252-12.252
		C126.35,64.817,129.808,60.266,134.603,58.602z"/>
	<path d="M188.313,90.423c11.167,0,20.252-9.085,20.252-20.252s-9.085-20.252-20.252-20.252s-20.252,9.085-20.252,20.252
		S177.146,90.423,188.313,90.423z M184.313,58.602v6.151c0,2.209,1.791,4,4,4s4-1.791,4-4v-6.151
		c4.795,1.663,8.252,6.215,8.252,11.568c0,6.756-5.497,12.252-12.252,12.252s-12.252-5.497-12.252-12.252
		C176.061,64.817,179.518,60.266,184.313,58.602z"/>
	<path d="M217.771,70.171c0,11.167,9.085,20.252,20.253,20.252c11.167,0,20.252-9.085,20.252-20.252s-9.085-20.252-20.252-20.252
		C226.856,49.918,217.771,59.004,217.771,70.171z M234.024,58.602v6.151c0,2.209,1.791,4,4,4s4-1.791,4-4v-6.151
		c4.795,1.663,8.252,6.215,8.252,11.568c0,6.756-5.496,12.252-12.252,12.252s-12.253-5.497-12.253-12.252
		C225.771,64.817,229.229,60.266,234.024,58.602z"/>
	<path d="M287.735,90.423c11.167,0,20.252-9.085,20.252-20.252s-9.085-20.252-20.252-20.252c-11.168,0-20.253,9.085-20.253,20.252
		S276.567,90.423,287.735,90.423z M283.735,58.602v6.151c0,2.209,1.791,4,4,4s4-1.791,4-4v-6.151
		c4.795,1.663,8.252,6.215,8.252,11.568c0,6.756-5.496,12.252-12.252,12.252s-12.253-5.497-12.253-12.252
		C275.482,64.817,278.94,60.266,283.735,58.602z"/>
	<path d="M213.397,42.827c6.687,0,12.126-5.439,12.126-12.126s-5.439-12.126-12.126-12.126s-12.126,5.44-12.126,12.126
		S206.711,42.827,213.397,42.827z M213.397,26.574c2.275,0,4.126,1.851,4.126,4.126c0,2.275-1.851,4.126-4.126,4.126
		s-4.126-1.851-4.126-4.126C209.271,28.425,211.122,26.574,213.397,26.574z"/>
</g>
<g>
</g>
<g>
</g>
<g>
</g>
<g>
</g>
<g>
</g>
<g>
</g>
<g>
</g>
<g>
</g>
<g>
</g>
<g>
</g>
<g>
</g>
<g>
</g>
<g>
</g>
<g>
</g>
<g>
</g>
</svg>
