<svg aria-hidden="true" style="position: absolute; width: 0; height: 0; overflow: hidden;" version="1.1" xmlns="http://www.w3.org/2000/svg" xmlns:xlink="http://www.w3.org/1999/xlink">
<defs>
<symbol id="icon-android" viewBox="0 0 32 32">
<title>android</title>
<path fill="#a4c639" style="fill: var(--color1, #a4c639)" d="M29.528 12.303c0-1.087-0.877-1.971-1.968-1.971s-1.973 0.88-1.973 1.973v8.253c0 1.080 0.884 1.973 1.977 1.973 1.085 0 1.968-0.893 1.968-1.973v-8.267h-0.013zM7.191 10.709l0.005 12.8c0 1.18 0.939 2.12 2.097 2.12h1.417v4.373c0 1.093 0.88 1.976 1.96 1.976s1.956-0.88 1.973-1.957v-4.373h2.657v4.373c0 1.097 0.88 1.977 1.96 1.977 1.097 0 1.976-0.88 1.976-1.987v-4.373h1.437c1.16 0 2.097-0.947 2.097-2.104v-12.84l-17.585 0.015zM20.055 6.803c-0.413 0-0.747-0.333-0.747-0.747 0-0.407 0.333-0.744 0.747-0.747 0.413 0 0.747 0.34 0.747 0.747 0 0.413-0.333 0.747-0.747 0.747zM11.975 6.803c-0.413 0-0.747-0.333-0.747-0.747 0-0.409 0.333-0.744 0.747-0.744s0.747 0.34 0.747 0.76-0.336 0.756-0.76 0.756zM20.348 2.961l1.372-2.521c0.080-0.14 0.019-0.301-0.101-0.38-0.139-0.060-0.299-0.020-0.379 0.12l-1.4 2.533c-1.157-0.54-2.475-0.84-3.853-0.84s-2.691 0.287-3.856 0.804l-1.379-2.537c-0.071-0.131-0.24-0.18-0.371-0.107-0.133 0.060-0.181 0.24-0.107 0.36l1.373 2.5c-2.707 1.396-4.533 4.053-4.533 7.107h17.771c0-3.053-1.824-5.711-4.528-7.107zM4.44 10.323c-1.089 0-1.973 0.887-1.973 1.977v8.256c0 1.093 0.885 1.973 1.979 1.973 1.085 0 1.969-0.88 1.969-1.973v-8.253c0-1.087-0.88-1.971-1.96-1.971z"></path>
</symbol>
<symbol id="icon-javascript" viewBox="0 0 32 32">
<title>javascript</title>
<path  d="M0 0h32v32h-32v-32zM29.379 24.368c-0.233-1.46-1.184-2.687-4.004-3.831-0.981-0.46-2.072-0.78-2.396-1.52-0.121-0.44-0.14-0.68-0.061-0.94 0.2-0.861 1.22-1.12 2.020-0.88 0.52 0.16 1 0.56 1.301 1.2 1.379-0.901 1.379-0.901 2.34-1.5-0.36-0.56-0.539-0.801-0.781-1.040-0.84-0.94-1.959-1.42-3.779-1.379l-0.94 0.119c-0.901 0.22-1.76 0.7-2.28 1.34-1.52 1.721-1.081 4.721 0.759 5.961 1.82 1.36 4.481 1.659 4.821 2.94 0.32 1.56-1.16 2.060-2.621 1.88-1.081-0.24-1.68-0.781-2.34-1.781l-2.44 1.401c0.28 0.64 0.6 0.919 1.080 1.479 2.32 2.341 8.12 2.221 9.161-1.339 0.039-0.12 0.32-0.94 0.099-2.2l0.061 0.089zM17.401 14.708h-2.997c0 2.584-0.012 5.152-0.012 7.74 0 1.643 0.084 3.151-0.184 3.615-0.44 0.919-1.573 0.801-2.088 0.64-0.528-0.261-0.796-0.621-1.107-1.14-0.084-0.14-0.147-0.261-0.169-0.261l-2.433 1.5c0.407 0.84 1 1.563 1.765 2.023 1.14 0.68 2.672 0.9 4.276 0.54 1.044-0.301 1.944-0.921 2.415-1.881 0.68-1.24 0.536-2.76 0.529-4.461 0.016-2.739 0-5.479 0-8.239l0.005-0.075z"></path>
</symbol>
<symbol id="icon-css3" viewBox="0 0 470.699 470.699">
<title>css3</title>
<path d="M426.981,0H43.701C34.52,0,27.632,7.769,28.442,16.949L63.45,409.254c0.811,9.173,8.745,18.774,17.644,21.253
	l138.006,38.335c8.887,2.463,23.413,2.479,32.313,0.032l138.177-38.281c8.901-2.472,16.835-11.986,17.645-21.175l35.023-392.469
	C443.068,7.769,436.209,0,426.981,0z M360.51,141.611c-0.006,0.06-0.053,0.107-0.112,0.117c-0.06,0.01-0.118-0.021-0.144-0.077
	L252.13,185.96c-1.54,0.631-2.418,2.264-2.098,3.897c0.322,1.633,1.754,2.811,3.419,2.811h84.103c4.474,0,8.736,1.9,11.728,5.227
	c2.991,3.327,4.429,7.768,3.954,12.216l-13.141,123.273c-0.645,6.048-4.709,11.186-10.447,13.205l-89.269,31.41
	c-3.362,1.184-7.027,1.193-10.397,0.025l-88.852-30.778c-5.773-2-9.871-7.153-10.52-13.228l-5.957-55.828
	c-0.313-2.931,0.634-5.857,2.604-8.048c1.971-2.192,4.779-3.444,7.727-3.444h24.725c5.313,0,9.769,4.007,10.331,9.289l3.655,34.316
	l61.521,21.385l61.803-21.58l7.559-71.17H129.835c-5.297,0-9.746-3.985-10.327-9.25l-3.327-30.164
	c-0.508-4.601,2.088-8.982,6.366-10.745l111.837-46.109c1.269-0.523,1.99-1.868,1.724-3.214c-0.267-1.345-1.446-2.314-2.817-2.314
	H115.542c-3.545,0-6.518-2.677-6.888-6.201l-3.406-32.421c-0.205-1.951,0.428-3.898,1.741-5.357
	c1.313-1.458,3.184-2.291,5.146-2.291h246.379c1.973,0,3.852,0.842,5.166,2.313c1.314,1.472,1.938,3.434,1.715,5.394L360.51,141.611
	z"/>
<g>
</g>
<g>
</g>
<g>
</g>
<g>
</g>
<g>
</g>
<g>
</g>
<g>
</g>
<g>
</g>
<g>
</g>
<g>
</g>
<g>
</g>
<g>
</g>
<g>
</g>
<g>
</g>
<g>
</g>

</symbol>
<symbol id="icon-html5" viewBox="0 0 456.804 456.804">
<title>html5</title>
<g>
	<path d="M27.405,0l36.542,410.56l163.882,46.244l165.022-46.244L429.398,0H27.405z M350.025,133.904h-192.43l4.283,51.676h183.866
		l-14.273,155.315l-102.499,28.26v0.287h-1.143l-103.356-28.547l-6.28-79.367h49.965l3.711,39.971l55.959,15.126l56.245-15.126
		l6.283-65.097H115.625l-13.418-152.46h252.392L350.025,133.904z"/>
</g>
<g>
</g>
<g>
</g>
<g>
</g>
<g>
</g>
<g>
</g>
<g>
</g>
<g>
</g>
<g>
</g>
<g>
</g>
<g>
</g>
<g>
</g>
<g>
</g>
<g>
</g>
<g>
</g>
<g>
</g>
</symbol>
<symbol id="icon-bootstrap" viewBox="0 0 32 32">
<title>bootstrap</title>
<path d="M26.667 0h-21.333c-2.943 0.008-5.325 2.391-5.333 5.333v21.333c0 2.933 2.4 5.333 5.333 5.333h21.333c2.933 0 5.333-2.4 5.333-5.333v-21.333c0-2.933-2.4-5.333-5.333-5.333zM23.751 22.473c-0.267 0.643-0.689 1.209-1.231 1.645-0.56 0.453-1.269 0.827-2.143 1.093-0.872 0.271-1.909 0.407-3.111 0.407h-8.576v-18.667h9.069c1.677 0 3.021 0.377 4.027 1.147 1.013 0.773 1.517 1.925 1.517 3.48 0 0.94-0.229 1.747-0.691 2.413-0.459 0.663-1.12 1.181-1.973 1.541v0.061c1.139 0.24 2.020 0.78 2.6 1.62s0.877 1.901 0.877 3.183c0 0.717-0.139 1.4-0.4 2.037l0.033 0.036zM20.049 17.873c-0.547-0.5-1.315-0.744-2.307-0.744h-5.763v5.824h5.779c0.987 0 1.76-0.256 2.307-0.773 0.547-0.513 0.827-1.245 0.827-2.187-0.009-0.92-0.28-1.632-0.827-2.12h-0.023zM19.249 14.109c0.528-0.448 0.787-1.089 0.787-1.925 0-0.939-0.233-1.605-0.707-1.987-0.469-0.38-1.147-0.577-2.037-0.577h-5.333v5.151h5.333c0.777 0 1.44-0.227 1.952-0.661z"></path>
</symbol>
<symbol id="icon-mail" viewBox="0 0 20 20">
<title>mail</title>
<path d="M1.574 5.286c0.488 0.262 7.248 3.894 7.5 4.029s0.578 0.199 0.906 0.199c0.328 0 0.654-0.064 0.906-0.199s7.012-3.767 7.5-4.029c0.489-0.263 0.951-1.286 0.054-1.286h-16.919c-0.897 0-0.435 1.023 0.053 1.286zM18.613 7.489c-0.555 0.289-7.387 3.849-7.727 4.027s-0.578 0.199-0.906 0.199-0.566-0.021-0.906-0.199-7.133-3.739-7.688-4.028c-0.39-0.204-0.386 0.035-0.386 0.219s0 7.293 0 7.293c0 0.42 0.566 1 1 1h16c0.434 0 1-0.58 1-1 0 0 0-7.108 0-7.292s0.004-0.423-0.387-0.219z"></path>
</symbol>
<symbol id="icon-sound-mix" viewBox="0 0 20 20">
<title>sound-mix</title>
<path d="M5 1.6c0-0.553-0.448-0.6-1-0.6-0.553 0-1 0.047-1 0.6v8.4h2v-8.4zM3 18.4c0 0.551 0.447 0.6 1 0.6 0.552 0 1-0.049 1-0.6v-3.4h-2v3.4zM6.399 11h-4.8c-0.553 0-0.599 0.448-0.599 1v1c0 0.553 0.046 1 0.599 1h4.801c0.55 0 0.6-0.447 0.6-1v-1c0-0.552-0.050-1-0.601-1zM18.399 12h-4.801c-0.552 0-0.598 0.448-0.598 1v1c0 0.553 0.046 1 0.599 1h4.801c0.55 0 0.6-0.447 0.6-1v-1c0-0.552-0.050-1-0.601-1zM13 7c0-0.552-0.050-1-0.601-1h-4.8c-0.553 0-0.599 0.448-0.599 1v1c0 0.553 0.046 1 0.599 1h4.801c0.55 0 0.6-0.447 0.6-1v-1zM11 1.6c0-0.553-0.448-0.6-1-0.6-0.553 0-1 0.047-1 0.6v3.4h2v-3.4zM9 18.4c0 0.551 0.447 0.6 1 0.6 0.552 0 1-0.049 1-0.6v-8.4h-2v8.4zM17 1.6c0-0.553-0.448-0.6-1-0.6-0.553 0-1 0.047-1 0.6v9.4h2v-9.4zM15 18.4c0 0.551 0.447 0.6 1 0.6 0.552 0 1-0.049 1-0.6v-2.4h-2v2.4z"></path>
</symbol>
<symbol id="icon-office" viewBox="0 0 32 32">
<title>office</title>
<path d="M0 32h16v-32h-16v32zM10 4h4v4h-4v-4zM10 12h4v4h-4v-4zM10 20h4v4h-4v-4zM2 4h4v4h-4v-4zM2 12h4v4h-4v-4zM2 20h4v4h-4v-4zM18 10h14v2h-14zM18 32h4v-8h6v8h4v-18h-14z"></path>
</symbol>
<symbol id="icon-camera" viewBox="0 0 32 32">
<title>camera</title>
<path d="M9.5 19c0 3.59 2.91 6.5 6.5 6.5s6.5-2.91 6.5-6.5-2.91-6.5-6.5-6.5-6.5 2.91-6.5 6.5zM30 8h-7c-0.5-2-1-4-3-4h-8c-2 0-2.5 2-3 4h-7c-1.1 0-2 0.9-2 2v18c0 1.1 0.9 2 2 2h28c1.1 0 2-0.9 2-2v-18c0-1.1-0.9-2-2-2zM16 27.875c-4.902 0-8.875-3.973-8.875-8.875s3.973-8.875 8.875-8.875c4.902 0 8.875 3.973 8.875 8.875s-3.973 8.875-8.875 8.875zM30 14h-4v-2h4v2z"></path>
</symbol>
<symbol id="icon-headphones" viewBox="0 0 32 32">
<title>headphones</title>
<path d="M9 18h-2v14h2c0.55 0 1-0.45 1-1v-12c0-0.55-0.45-1-1-1z"></path>
<path d="M23 18c-0.55 0-1 0.45-1 1v12c0 0.55 0.45 1 1 1h2v-14h-2z"></path>
<path d="M32 16c0-8.837-7.163-16-16-16s-16 7.163-16 16c0 1.919 0.338 3.759 0.958 5.464-0.609 1.038-0.958 2.246-0.958 3.536 0 3.526 2.608 6.443 6 6.929v-13.857c-0.997 0.143-1.927 0.495-2.742 1.012-0.168-0.835-0.258-1.699-0.258-2.584 0-7.18 5.82-13 13-13s13 5.82 13 13c0 0.885-0.088 1.749-0.257 2.584-0.816-0.517-1.745-0.87-2.743-1.013v13.858c3.392-0.485 6-3.402 6-6.929 0-1.29-0.349-2.498-0.958-3.536 0.62-1.705 0.958-3.545 0.958-5.465z"></path>
</symbol>
<symbol id="icon-music" viewBox="0 0 32 32">
<title>music</title>
<path d="M30 0h2v23c0 2.761-3.134 5-7 5s-7-2.239-7-5c0-2.761 3.134-5 7-5 1.959 0 3.729 0.575 5 1.501v-11.501l-16 3.556v15.444c0 2.761-3.134 5-7 5s-7-2.239-7-5c0-2.761 3.134-5 7-5 1.959 0 3.729 0.575 5 1.501v-19.501l18-4z"></path>
</symbol>
<symbol id="icon-video-camera" viewBox="0 0 32 32">
<title>video-camera</title>
<path d="M12 9c0-2.761 2.239-5 5-5s5 2.239 5 5c0 2.761-2.239 5-5 5s-5-2.239-5-5zM0 9c0-2.761 2.239-5 5-5s5 2.239 5 5c0 2.761-2.239 5-5 5s-5-2.239-5-5zM24 19v-3c0-1.1-0.9-2-2-2h-20c-1.1 0-2 0.9-2 2v10c0 1.1 0.9 2 2 2h20c1.1 0 2-0.9 2-2v-3l8 5v-14l-8 5zM20 24h-16v-6h16v6z"></path>
</symbol>
<symbol id="icon-mic" viewBox="0 0 32 32">
<title>mic</title>
<path d="M15 22c2.761 0 5-2.239 5-5v-12c0-2.761-2.239-5-5-5s-5 2.239-5 5v12c0 2.761 2.239 5 5 5zM22 14v3c0 3.866-3.134 7-7 7s-7-3.134-7-7v-3h-2v3c0 4.632 3.5 8.447 8 8.944v4.056h-4v2h10v-2h-4v-4.056c4.5-0.497 8-4.312 8-8.944v-3h-2z"></path>
</symbol>
<symbol id="icon-books" viewBox="0 0 36 32">
<title>books</title>
<path d="M7 4h-6c-0.55 0-1 0.45-1 1v22c0 0.55 0.45 1 1 1h6c0.55 0 1-0.45 1-1v-22c0-0.55-0.45-1-1-1zM6 10h-4v-2h4v2z"></path>
<path d="M17 4h-6c-0.55 0-1 0.45-1 1v22c0 0.55 0.45 1 1 1h6c0.55 0 1-0.45 1-1v-22c0-0.55-0.45-1-1-1zM16 10h-4v-2h4v2z"></path>
<path d="M23.909 5.546l-5.358 2.7c-0.491 0.247-0.691 0.852-0.443 1.343l8.999 17.861c0.247 0.491 0.852 0.691 1.343 0.443l5.358-2.7c0.491-0.247 0.691-0.852 0.443-1.343l-8.999-17.861c-0.247-0.491-0.852-0.691-1.343-0.443z"></path>
</symbol>
<symbol id="icon-file-music" viewBox="0 0 32 32">
<title>file-music</title>
<path d="M28.681 7.159c-0.694-0.947-1.662-2.053-2.724-3.116s-2.169-2.030-3.116-2.724c-1.612-1.182-2.393-1.319-2.841-1.319h-15.5c-1.378 0-2.5 1.121-2.5 2.5v27c0 1.378 1.121 2.5 2.5 2.5h23c1.378 0 2.5-1.122 2.5-2.5v-19.5c0-0.448-0.137-1.23-1.319-2.841v0zM24.543 5.457c0.959 0.959 1.712 1.825 2.268 2.543h-4.811v-4.811c0.718 0.556 1.584 1.309 2.543 2.268v0zM28 29.5c0 0.271-0.229 0.5-0.5 0.5h-23c-0.271 0-0.5-0.229-0.5-0.5v-27c0-0.271 0.229-0.5 0.5-0.5 0 0 15.499-0 15.5 0v7c0 0.552 0.448 1 1 1h7v19.5z"></path>
<path d="M23.634 12.227c-0.232-0.19-0.536-0.266-0.83-0.207l-10 2c-0.467 0.094-0.804 0.504-0.804 0.981v7.402c-0.588-0.255-1.271-0.402-2-0.402-2.209 0-4 1.343-4 3s1.791 3 4 3 4-1.343 4-3v-7.18l8-1.6v4.183c-0.588-0.255-1.271-0.402-2-0.402-2.209 0-4 1.343-4 3s1.791 3 4 3 4-1.343 4-3v-10c0-0.3-0.134-0.583-0.366-0.773z"></path>
</symbol>
<symbol id="icon-pushpin" viewBox="0 0 32 32">
<title>pushpin</title>
<path d="M17 0l-3 3 3 3-7 8h-7l5.5 5.5-8.5 11.269v1.231h1.231l11.269-8.5 5.5 5.5v-7l8-7 3 3 3-3-15-15zM14 17l-2-2 7-7 2 2-7 7z"></path>
</symbol>
<symbol id="icon-location" viewBox="0 0 32 32">
<title>location</title>
<path d="M16 0c-5.523 0-10 4.477-10 10 0 10 10 22 10 22s10-12 10-22c0-5.523-4.477-10-10-10zM16 16c-3.314 0-6-2.686-6-6s2.686-6 6-6 6 2.686 6 6-2.686 6-6 6z"></path>
</symbol>
<symbol id="icon-map2" viewBox="0 0 32 32">
<title>map2</title>
<path d="M21 6l-10-4-11 4v24l11-4 10 4 11-4v-24l-11 4zM12 4.554l8 3.2v19.692l-8-3.2v-19.692zM2 7.401l8-2.909v19.744l-8 2.909v-19.744zM30 24.599l-8 2.909v-19.744l8-2.909v19.744z"></path>
</symbol>
<symbol id="icon-calendar" viewBox="0 0 32 32">
<title>calendar</title>
<path d="M10 12h4v4h-4zM16 12h4v4h-4zM22 12h4v4h-4zM4 24h4v4h-4zM10 24h4v4h-4zM16 24h4v4h-4zM10 18h4v4h-4zM16 18h4v4h-4zM22 18h4v4h-4zM4 18h4v4h-4zM26 0v2h-4v-2h-14v2h-4v-2h-4v32h30v-32h-4zM28 30h-26v-22h26v22z"></path>
</symbol>
<symbol id="icon-display" viewBox="0 0 32 32">
<title>display</title>
<path d="M0 2v20h32v-20h-32zM30 20h-28v-16h28v16zM21 24h-10l-1 4-2 2h16l-2-2z"></path>
</symbol>
<symbol id="icon-database" viewBox="0 0 32 32">
<title>database</title>
<path d="M16 0c-8.837 0-16 2.239-16 5v4c0 2.761 7.163 5 16 5s16-2.239 16-5v-4c0-2.761-7.163-5-16-5z"></path>
<path d="M16 17c-8.837 0-16-2.239-16-5v6c0 2.761 7.163 5 16 5s16-2.239 16-5v-6c0 2.761-7.163 5-16 5z"></path>
<path d="M16 26c-8.837 0-16-2.239-16-5v6c0 2.761 7.163 5 16 5s16-2.239 16-5v-6c0 2.761-7.163 5-16 5z"></path>
</symbol>
<symbol id="icon-forward" viewBox="0 0 32 32">
<title>forward</title>
<path d="M8.192 0c-3.554 6.439-4.153 16.259 9.808 15.932v-7.932l12 12-12 12v-7.762c-16.718 0.436-18.58-14.757-9.808-24.238z"></path>
</symbol>
<symbol id="icon-user" viewBox="0 0 32 32">
<title>user</title>
<path d="M18 22.082v-1.649c2.203-1.241 4-4.337 4-7.432 0-4.971 0-9-6-9s-6 4.029-6 9c0 3.096 1.797 6.191 4 7.432v1.649c-6.784 0.555-12 3.888-12 7.918h28c0-4.030-5.216-7.364-12-7.918z"></path>
</symbol>
<symbol id="icon-equalizer2" viewBox="0 0 32 32">
<title>equalizer2</title>
<path d="M28 14h0.5c0.825 0 1.5-0.675 1.5-1.5v-5c0-0.825-0.675-1.5-1.5-1.5h-0.5v-6h-4v6h-0.5c-0.825 0-1.5 0.675-1.5 1.5v5c0 0.825 0.675 1.5 1.5 1.5h0.5v18h4v-18zM24 8h4v4h-4v-4zM18.5 26c0.825 0 1.5-0.675 1.5-1.5v-5c0-0.825-0.675-1.5-1.5-1.5h-0.5v-18h-4v18h-0.5c-0.825 0-1.5 0.675-1.5 1.5v5c0 0.825 0.675 1.5 1.5 1.5h0.5v6h4v-6h0.5zM14 20h4v4h-4v-4zM8.5 14c0.825 0 1.5-0.675 1.5-1.5v-5c0-0.825-0.675-1.5-1.5-1.5h-0.5v-6h-4v6h-0.5c-0.825 0-1.5 0.675-1.5 1.5v5c0 0.825 0.675 1.5 1.5 1.5h0.5v18h4v-18h0.5zM4 8h4v4h-4v-4z"></path>
</symbol>
<symbol id="icon-stats-dots" viewBox="0 0 32 32">
<title>stats-dots</title>
<path d="M4 28h28v4h-32v-32h4zM9 26c-1.657 0-3-1.343-3-3s1.343-3 3-3c0.088 0 0.176 0.005 0.262 0.012l3.225-5.375c-0.307-0.471-0.487-1.033-0.487-1.638 0-1.657 1.343-3 3-3s3 1.343 3 3c0 0.604-0.179 1.167-0.487 1.638l3.225 5.375c0.086-0.007 0.174-0.012 0.262-0.012 0.067 0 0.133 0.003 0.198 0.007l5.324-9.316c-0.329-0.482-0.522-1.064-0.522-1.691 0-1.657 1.343-3 3-3s3 1.343 3 3c0 1.657-1.343 3-3 3-0.067 0-0.133-0.003-0.198-0.007l-5.324 9.316c0.329 0.481 0.522 1.064 0.522 1.691 0 1.657-1.343 3-3 3s-3-1.343-3-3c0-0.604 0.179-1.167 0.487-1.638l-3.225-5.375c-0.086 0.007-0.174 0.012-0.262 0.012s-0.176-0.005-0.262-0.012l-3.225 5.375c0.307 0.471 0.487 1.033 0.487 1.637 0 1.657-1.343 3-3 3z"></path>
</symbol>
<symbol id="icon-stats-bars2" viewBox="0 0 32 32">
<title>stats-bars2</title>
<path d="M9 12h-6c-0.55 0-1 0.45-1 1v18c0 0.55 0.45 1 1 1h6c0.55 0 1-0.45 1-1v-18c0-0.55-0.45-1-1-1zM9 30h-6v-8h6v8zM19 8h-6c-0.55 0-1 0.45-1 1v22c0 0.55 0.45 1 1 1h6c0.55 0 1-0.45 1-1v-22c0-0.55-0.45-1-1-1zM19 30h-6v-10h6v10zM29 4h-6c-0.55 0-1 0.45-1 1v26c0 0.55 0.45 1 1 1h6c0.55 0 1-0.45 1-1v-26c0-0.55-0.45-1-1-1zM29 30h-6v-12h6v12z"></path>
</symbol>
<symbol id="icon-trophy" viewBox="0 0 32 32">
<title>trophy</title>
<path d="M26 6v-4h-20v4h-6v4c0 3.314 2.686 6 6 6 0.627 0 1.232-0.096 1.801-0.275 1.443 2.063 3.644 3.556 6.199 4.075v6.2h-2c-2.209 0-4 1.791-4 4h16c0-2.209-1.791-4-4-4h-2v-6.2c2.555-0.519 4.756-2.012 6.199-4.075 0.568 0.179 1.173 0.275 1.801 0.275 3.314 0 6-2.686 6-6v-4h-6zM6 13.625c-1.999 0-3.625-1.626-3.625-3.625v-2h3.625v2c0 1.256 0.232 2.457 0.655 3.565-0.213 0.039-0.431 0.060-0.655 0.060zM29.625 10c0 1.999-1.626 3.625-3.625 3.625-0.224 0-0.442-0.021-0.655-0.060 0.423-1.107 0.655-2.309 0.655-3.565v-2h3.625v2z"></path>
</symbol>
<symbol id="icon-briefcase" viewBox="0 0 32 32">
<title>briefcase</title>
<path d="M30 8h-8v-2c0-1.1-0.9-2-2-2h-8c-1.1 0-2 0.9-2 2v2h-8c-1.1 0-2 0.9-2 2v18c0 1.1 0.9 2 2 2h28c1.1 0 2-0.9 2-2v-18c0-1.1-0.9-2-2-2zM12 6.004c0.001-0.001 0.002-0.003 0.004-0.004h7.993c0.001 0.001 0.003 0.002 0.004 0.004v1.996h-8v-1.996zM30 16h-4v3c0 0.55-0.45 1-1 1h-2c-0.55 0-1-0.45-1-1v-3h-12v3c0 0.55-0.45 1-1 1h-2c-0.55 0-1-0.45-1-1v-3h-4v-2h28v2z"></path>
</symbol>
<symbol id="icon-airplane" viewBox="0 0 32 32">
<title>airplane</title>
<path d="M24 19.999l-5.713-5.713 13.713-10.286-4-4-17.141 6.858-5.397-5.397c-1.556-1.556-3.728-1.928-4.828-0.828s-0.727 3.273 0.828 4.828l5.396 5.396-6.858 17.143 4 4 10.287-13.715 5.713 5.713v7.999h4l2-6 6-2v-4l-7.999 0z"></path>
</symbol>
<symbol id="icon-power" viewBox="0 0 32 32">
<title>power</title>
<path d="M12 0l-12 16h12l-8 16 28-20h-16l12-12z"></path>
</symbol>
<symbol id="icon-sphere" viewBox="0 0 32 32">
<title>sphere</title>
<path d="M15 2c-8.284 0-15 6.716-15 15s6.716 15 15 15c8.284 0 15-6.716 15-15s-6.716-15-15-15zM23.487 22c0.268-1.264 0.437-2.606 0.492-4h3.983c-0.104 1.381-0.426 2.722-0.959 4h-3.516zM6.513 12c-0.268 1.264-0.437 2.606-0.492 4h-3.983c0.104-1.381 0.426-2.722 0.959-4h3.516zM21.439 12c0.3 1.28 0.481 2.62 0.54 4h-5.979v-4h5.439zM16 10v-5.854c0.456 0.133 0.908 0.355 1.351 0.668 0.831 0.586 1.625 1.488 2.298 2.609 0.465 0.775 0.867 1.638 1.203 2.578h-4.852zM10.351 7.422c0.673-1.121 1.467-2.023 2.298-2.609 0.443-0.313 0.895-0.535 1.351-0.668v5.854h-4.852c0.336-0.94 0.738-1.803 1.203-2.578zM14 12v4h-5.979c0.059-1.38 0.24-2.72 0.54-4h5.439zM2.997 22c-0.533-1.278-0.854-2.619-0.959-4h3.983c0.055 1.394 0.224 2.736 0.492 4h-3.516zM8.021 18h5.979v4h-5.439c-0.3-1.28-0.481-2.62-0.54-4zM14 24v5.854c-0.456-0.133-0.908-0.355-1.351-0.668-0.831-0.586-1.625-1.488-2.298-2.609-0.465-0.775-0.867-1.638-1.203-2.578h4.852zM19.649 26.578c-0.673 1.121-1.467 2.023-2.298 2.609-0.443 0.312-0.895 0.535-1.351 0.668v-5.854h4.852c-0.336 0.94-0.738 1.802-1.203 2.578zM16 22v-4h5.979c-0.059 1.38-0.24 2.72-0.54 4h-5.439zM23.98 16c-0.055-1.394-0.224-2.736-0.492-4h3.516c0.533 1.278 0.855 2.619 0.959 4h-3.983zM25.958 10h-2.997c-0.582-1.836-1.387-3.447-2.354-4.732 1.329 0.636 2.533 1.488 3.585 2.54 0.671 0.671 1.261 1.404 1.766 2.192zM5.808 7.808c1.052-1.052 2.256-1.904 3.585-2.54-0.967 1.285-1.771 2.896-2.354 4.732h-2.997c0.504-0.788 1.094-1.521 1.766-2.192zM4.042 24h2.997c0.583 1.836 1.387 3.447 2.354 4.732-1.329-0.636-2.533-1.488-3.585-2.54-0.671-0.671-1.261-1.404-1.766-2.192zM24.192 26.192c-1.052 1.052-2.256 1.904-3.585 2.54 0.967-1.285 1.771-2.896 2.354-4.732h2.997c-0.504 0.788-1.094 1.521-1.766 2.192z"></path>
</symbol>
<symbol id="icon-earth" viewBox="0 0 32 32">
<title>earth</title>
<path d="M16 0c-8.837 0-16 7.163-16 16s7.163 16 16 16 16-7.163 16-16-7.163-16-16-16zM16 30c-1.967 0-3.84-0.407-5.538-1.139l7.286-8.197c0.163-0.183 0.253-0.419 0.253-0.664v-3c0-0.552-0.448-1-1-1-3.531 0-7.256-3.671-7.293-3.707-0.188-0.188-0.442-0.293-0.707-0.293h-4c-0.552 0-1 0.448-1 1v6c0 0.379 0.214 0.725 0.553 0.894l3.447 1.724v5.871c-3.627-2.53-6-6.732-6-11.489 0-2.147 0.484-4.181 1.348-6h3.652c0.265 0 0.52-0.105 0.707-0.293l4-4c0.188-0.188 0.293-0.442 0.293-0.707v-2.419c1.268-0.377 2.61-0.581 4-0.581 2.2 0 4.281 0.508 6.134 1.412-0.13 0.109-0.256 0.224-0.376 0.345-1.133 1.133-1.757 2.64-1.757 4.243s0.624 3.109 1.757 4.243c1.139 1.139 2.663 1.758 4.239 1.758 0.099 0 0.198-0.002 0.297-0.007 0.432 1.619 1.211 5.833-0.263 11.635-0.014 0.055-0.022 0.109-0.026 0.163-2.541 2.596-6.084 4.208-10.004 4.208z"></path>
</symbol>
<symbol id="icon-cross" viewBox="0 0 32 32">
<title>cross</title>
<path d="M31.708 25.708c-0-0-0-0-0-0l-9.708-9.708 9.708-9.708c0-0 0-0 0-0 0.105-0.105 0.18-0.227 0.229-0.357 0.133-0.356 0.057-0.771-0.229-1.057l-4.586-4.586c-0.286-0.286-0.702-0.361-1.057-0.229-0.13 0.048-0.252 0.124-0.357 0.228 0 0-0 0-0 0l-9.708 9.708-9.708-9.708c-0-0-0-0-0-0-0.105-0.104-0.227-0.18-0.357-0.228-0.356-0.133-0.771-0.057-1.057 0.229l-4.586 4.586c-0.286 0.286-0.361 0.702-0.229 1.057 0.049 0.13 0.124 0.252 0.229 0.357 0 0 0 0 0 0l9.708 9.708-9.708 9.708c-0 0-0 0-0 0-0.104 0.105-0.18 0.22F7-0.229 0.357-0.133 0.355-0.057 0.771 0.229 1.057l4.586 4.586c0.286 0.286 0.702 0.361 1.057 0.229 0.13-0.049 0.252-0.124 0.357-0.229 0-0 0-0 0-0l9.708-9.708 9.708 9.708c0 0 0 0 0 0 0.105 0.105 0.227 0.18 0.357 0.229 0.356 0.133 0.771 0.057 1.057-0.229l4.586-4.586c0.286-0.286 0.362-0.702 0.229-1.057-0.049-0.13-0.124-0.252-0.229-0.357z"></path>
</symbol>
<symbol id="icon-checkmark" viewBox="0 0 32 32">
<title>checkmark</title>
<path d="M27 4l-15 15-7-7-5 5 12 12 20-20z"></path>
</symbol>
<symbol id="icon-circle-up" viewBox="0 0 32 32">
<title>circle-up</title>
<path d="M0 16c0 8.837 7.163 16 16 16s16-7.163 16-16-7.163-16-16-16-16 7.163-16 16zM29 16c0 7.18-5.82 13-13 13s-13-5.82-13-13 5.82-13 13-13 13 5.82 13 13z"></path>
<path d="M22.086 20.914l2.829-2.829-8.914-8.914-8.914 8.914 2.828 2.828 6.086-6.086z"></path>
</symbol>
<symbol id="icon-circle-right" viewBox="0 0 32 32">
<title>circle-right</title>
<path d="M16 0c-8.837 0-16 7.163-16 16s7.163 16 16 16 16-7.163 16-16-7.163-16-16-16zM16 29c-7.18 0-13-5.82-13-13s5.82-13 13-13 13 5.82 13 13-5.82 13-13 13z"></path>
<path d="M11.086 22.086l2.829 2.829 8.914-8.914-8.914-8.914-2.828 2.828 6.086 6.086z"></path>
</symbol>
<symbol id="icon-embed2" viewBox="0 0 40 32">
<title>embed2</title>
<path d="M26 23l3 3 10-10-10-10-3 3 7 7z"></path>
<path d="M14 9l-3-3-10 10 10 10 3-3-7-7z"></path>
<path d="M21.916 4.704l2.171 0.592-6 22.001-2.171-0.592 6-22.001z"></path>
</symbol>
<symbol id="icon-facebook2" viewBox="0 0 32 32">
<title>facebook2</title>
<path d="M29 0h-26c-1.65 0-3 1.35-3 3v26c0 1.65 1.35 3 3 3h13v-14h-4v-4h4v-2c0-3.306 2.694-6 6-6h4v4h-4c-1.1 0-2 0.9-2 2v2h6l-1 4h-5v14h9c1.65 0 3-1.35 3-3v-26c0-1.65-1.35-3-3-3z"></path>
</symbol>
<symbol id="icon-instagram" viewBox="0 0 32 32">
<title>instagram</title>
<path d="M16 2.881c4.275 0 4.781 0.019 6.462 0.094 1.563 0.069 2.406 0.331 2.969 0.55 0.744 0.288 1.281 0.638 1.837 1.194 0.563 0.563 0.906 1.094 1.2 1.838 0.219 0.563 0.481 1.412 0.55 2.969 0.075 1.688 0.094 2.194 0.094 6.463s-0.019 4.781-0.094 6.463c-0.069 1.563-0.331 2.406-0.55 2.969-0.288 0.744-0.637 1.281-1.194 1.837-0.563 0.563-1.094 0.906-1.837 1.2-0.563 0.219-1.413 0.481-2.969 0.55-1.688 0.075-2.194 0.094-6.463 0.094s-4.781-0.019-6.463-0.094c-1.563-0.069-2.406-0.331-2.969-0.55-0.744-0.288-1.281-0.637-1.838-1.194-0.563-0.563-0.906-1.094-1.2-1.837-0.219-0.563-0.481-1.413-0.55-2.969-0.075-1.688-0.094-2.194-0.094-6.463s0.019-4.781 0.094-6.463c0.069-1.563 0.331-2.406 0.55-2.969 0.288-0.744 0.638-1.281 1.194-1.838 0.563-0.563 1.094-0.906 1.838-1.2 0.563-0.219 1.412-0.481 2.969-0.55 1.681-0.075 2.188-0.094 6.463-0.094zM16 0c-4.344 0-4.887 0.019-6.594 0.094-1.7 0.075-2.869 0.35-3.881 0.744-1.056 0.412-1.95 0.956-2.837 1.85-0.894 0.888-1.438 1.781-1.85 2.831-0.394 1.019-0.669 2.181-0.744 3.881-0.075 1.713-0.094 2.256-0.094 6.6s0.019 4.887 0.094 6.594c0.075 1.7 0.35 2.869 0.744 3.881 0.413 1.056 0.956 1.95 1.85 2.837 0.887 0.887 1.781 1.438 2.831 1.844 1.019 0.394 2.181 0.669 3.881 0.744 1.706 0.075 2.25 0.094 6.594 0.094s4.888-0.019 6.594-0.094c1.7-0.075 2.869-0.35 3.881-0.744 1.050-0.406 1.944-0.956 2.831-1.844s1.438-1.781 1.844-2.831c0.394-1.019 0.669-2.181 0.744-3.881 0.075-1.706 0.094-2.25 0.094-6.594s-0.019-4.887-0.094-6.594c-0.075-1.7-0.35-2.869-0.744-3.881-0.394-1.063-0.938-1.956-1.831-2.844-0.887-0.887-1.781-1.438-2.831-1.844-1.019-0.394-2.181-0.669-3.881-0.744-1.712-0.081-2.256-0.1-6.6-0.1v0z"></path>
<path d="M16 7.781c-4.537 0-8.219 3.681-8.219 8.219s3.681 8.219 8.219 8.219 8.219-3.681 8.219-8.219c0-4.537-3.681-8.219-8.219-8.219zM16 21.331c-2.944 0-5.331-2.387-5.331-5.331s2.387-5.331 5.331-5.331c2.944 0 5.331 2.387 5.331 5.331s-2.387 5.331-5.331 5.331z"></path>
<path d="M26.462 7.456c0 1.060-0.859 1.919-1.919 1.919s-1.919-0.859-1.919-1.919c0-1.060 0.859-1.919 1.919-1.919s1.919 0.859 1.919 1.919z"></path>
</symbol>
<symbol id="icon-whatsapp" viewBox="0 0 32 32">
<title>whatsapp</title>
<path d="M27.281 4.65c-2.994-3-6.975-4.65-11.219-4.65-8.738 0-15.85 7.112-15.85 15.856 0 2.794 0.731 5.525 2.119 7.925l-2.25 8.219 8.406-2.206c2.319 1.262 4.925 1.931 7.575 1.931h0.006c0 0 0 0 0 0 8.738 0 15.856-7.113 15.856-15.856 0-4.238-1.65-8.219-4.644-11.219zM16.069 29.050v0c-2.369 0-4.688-0.637-6.713-1.837l-0.481-0.288-4.987 1.306 1.331-4.863-0.313-0.5c-1.325-2.094-2.019-4.519-2.019-7.012 0-7.269 5.912-13.181 13.188-13.181 3.519 0 6.831 1.375 9.319 3.862 2.488 2.494 3.856 5.8 3.856 9.325-0.006 7.275-5.919 13.188-13.181 13.188zM23.294 19.175c-0.394-0.2-2.344-1.156-2.706-1.288s-0.625-0.2-0.894 0.2c-0.262 0.394-1.025 1.288-1.256 1.556-0.231 0.262-0.462 0.3-0.856 0.1s-1.675-0.619-3.188-1.969c-1.175-1.050-1.975-2.35-2.206-2.744s-0.025-0.613 0.175-0.806c0.181-0.175 0.394-0.463 0.594-0.694s0.262-0.394 0.394-0.662c0.131-0.262 0.069-0.494-0.031-0.694s-0.894-2.15-1.219-2.944c-0.319-0.775-0.65-0.669-0.894-0.681-0.231-0.012-0.494-0.012-0.756-0.012s-0.694 0.1-1.056 0.494c-0.363 0.394-1.387 1.356-1.387 3.306s1.419 3.831 1.619 4.1c0.2 0.262 2.794 4.269 6.769 5.981 0.944 0.406 1.681 0.65 2.256 0.837 0.95 0.3 1.813 0.256 2.494 0.156 0.762-0.113 2.344-0.956 2.675-1.881s0.331-1.719 0.231-1.881c-0.094-0.175-0.356-0.275-0.756-0.475z"></path>
</symbol>
<symbol id="icon-steam" viewBox="0 0 32 32">
<title>steam</title>
<path d="M22 9c0-1.657 1.343-3 3-3s3 1.343 3 3c0 1.657-1.343 3-3 3s-3-1.343-3-3zM29.95 4.050c-2.734-2.734-7.166-2.734-9.9 0-1.112 1.112-1.771 2.505-1.979 3.95v0l-6.397 9.695c-0.86 0.044-1.712 0.263-2.499 0.657l-4.934-3.857c-1.142-0.893-2.792-0.691-3.685 0.451s-0.691 2.792 0.452 3.685l4.873 3.809c-0.53 2.087 0.021 4.392 1.654 6.025 2.466 2.466 6.464 2.466 8.929 0 1.515-1.515 2.098-3.607 1.752-5.568l7.783-6.968c1.445-0.207 2.838-0.867 3.95-1.979 2.734-2.734 2.734-7.166 0-9.899zM12 28.209c-2.325 0-4.209-1.884-4.209-4.209 0-0.022 0.001-0.044 0.002-0.066l2.091 1.634c0.48 0.375 1.049 0.557 1.615 0.557 0.78 0 1.552-0.346 2.070-1.009 0.893-1.142 0.691-2.792-0.451-3.685l-1.984-1.551c0.28-0.059 0.57-0.090 0.868-0.090 2.325 0 4.209 1.884 4.209 4.209s-1.885 4.209-4.209 4.209zM25 14c-2.761 0-5-2.239-5-5s2.239-5 5-5 5 2.239 5 5-2.239 5-5 5z"></path>
</symbol>
<symbol id="icon-github" viewBox="0 0 32 32">
<title>github</title>
<path d="M16 0.395c-8.836 0-16 7.163-16 16 0 7.069 4.585 13.067 10.942 15.182 0.8 0.148 1.094-0.347 1.094-0.77 0-0.381-0.015-1.642-0.022-2.979-4.452 0.968-5.391-1.888-5.391-1.888-0.728-1.849-1.776-2.341-1.776-2.341-1.452-0.993 0.11-0.973 0.11-0.973 1.606 0.113 2.452 1.649 2.452 1.649 1.427 2.446 3.743 1.739 4.656 1.33 0.143-1.034 0.558-1.74 1.016-2.14-3.554-0.404-7.29-1.777-7.29-7.907 0-1.747 0.625-3.174 1.649-4.295-0.166-0.403-0.714-2.030 0.155-4.234 0 0 1.344-0.43 4.401 1.64 1.276-0.355 2.645-0.532 4.005-0.539 1.359 0.006 2.729 0.184 4.008 0.539 3.054-2.070 4.395-1.64 4.395-1.64 0.871 2.204 0.323 3.831 0.157 4.234 1.026 1.12 1.647 2.548 1.647 4.295 0 6.145-3.743 7.498-7.306 7.895 0.574 0.497 1.085 1.47 1.085 2.963 0 2.141-0.019 3.864-0.019 4.391 0 0.426 0.288 0.925 1.099 0.768 6.354-2.118 10.933-8.113 10.933-15.18 0-8.837-7.164-16-16-16z"></path>
</symbol>
<symbol id="icon-wordpress" viewBox="0 0 32 32">
<title>wordpress</title>
<path d="M4 16c0 4.626 2.76 8.624 6.763 10.518l-5.724-15.274c-0.666 1.453-1.039 3.062-1.039 4.756zM24.101 15.41c0-1.445-0.533-2.445-0.989-3.223-0.608-0.963-1.179-1.778-1.179-2.741 0-1.074 0.836-2.074 2.015-2.074 0.053 0 0.104 0.006 0.155 0.009-2.135-1.905-4.979-3.069-8.103-3.069-4.192 0-7.881 2.095-10.026 5.268 0.282 0.009 0.547 0.014 0.772 0.014 1.255 0 3.198-0.149 3.198-0.149 0.647-0.037 0.723 0.889 0.077 0.963 0 0-0.65 0.074-1.373 0.111l4.37 12.66 2.626-7.671-1.869-4.989c-0.646-0.037-1.259-0.111-1.259-0.111-0.647-0.037-0.571-1 0.076-0.963 0 0 1.981 0.149 3.16 0.149 1.255 0 3.198-0.149 3.198-0.149 0.647-0.037 0.723 0.889 0.076 0.963 0 0-0.651 0.074-1.373 0.111l4.337 12.563 1.197-3.895c0.518-1.617 0.913-2.778 0.913-3.778zM16.211 17.022l-3.601 10.189c1.075 0.308 2.212 0.476 3.39 0.476 1.397 0 2.738-0.235 3.985-0.663-0.032-0.050-0.062-0.103-0.086-0.161l-3.688-9.842zM26.53 10.393c0.052 0.372 0.081 0.771 0.081 1.202 0 1.185-0.228 2.519-0.913 4.186l-3.665 10.321c3.568-2.026 5.967-5.79 5.967-10.102 0-2.032-0.533-3.943-1.47-5.607zM16 0c-8.837 0-16 7.163-16 16s7.163 16 16 16 16-7.163 16-16-7.163-16-16-16zM16 30c-7.732 0-14-6.268-14-14s6.268-14 14-14 14 6.268 14 14-6.268 14-14 14z"></path>
</symbol>

























































































<symbol id="icon-circuit" viewBox="0 0 504.986 504.986">
<title>circuit</title>
		<g>
	<g>
		<path d="M252.493,0C112.921,0,0,112.921,0,252.493s112.921,252.493,252.493,252.493s252.493-112.921,252.493-252.493
			S392.066,0,252.493,0z M340.164,125.545c7.715,0,14.027,6.312,14.027,14.027c0,7.715-6.312,14.027-14.027,14.027
			c-7.715,0-14.027-6.312-14.027-14.027C326.137,131.858,332.449,125.545,340.164,125.545z M252.493,241.973
			c-7.715,0-14.027-6.312-14.027-14.027c0-7.715,6.312-14.027,14.027-14.027c7.715,0,14.027,6.312,14.027,14.027
			C266.521,235.66,260.208,241.973,252.493,241.973z M360.504,448.877V298.784l38.575-38.575c5.611,2.806,11.923,4.208,18.236,4.208
			c23.145,0,42.082-18.937,42.082-42.082s-18.937-42.082-42.082-42.082s-42.082,18.937-42.082,42.082
			c0,6.312,1.403,12.625,4.208,18.236l-42.784,42.784c-2.805,2.805-4.208,6.312-4.208,9.819v169.03
			c-21.041,7.715-42.784,12.625-65.929,14.729V267.923c16.131-5.611,28.055-21.041,28.055-39.277
			c0-23.145-18.937-42.082-42.082-42.082s-42.082,18.937-42.082,42.082c0,18.236,11.923,33.666,28.055,39.277v209.008
			c-23.145-1.403-45.589-6.312-65.929-14.729V347.178c0-3.507-1.403-7.014-4.208-9.819l-25.249-25.249
			c2.805-5.611,4.208-11.923,4.208-18.236c0-23.145-18.937-42.082-42.082-42.082s-42.082,18.937-42.082,42.082
			c0,23.145,18.937,42.082,42.082,42.082c6.312,0,12.625-1.403,18.236-4.208l21.041,21.041v96.088
			C75.047,410.301,28.055,336.658,28.055,252.493c0-110.115,79.255-201.293,183.759-220.932v108.011h-18.937
			c-5.611-16.132-21.041-28.055-39.277-28.055c-23.145,0-42.082,18.937-42.082,42.082s18.937,42.082,42.082,42.082
			c18.236,0,33.666-11.923,39.277-28.055h32.964c7.715,0,14.027-6.312,14.027-14.027V28.756c4.208,0,8.416-0.701,12.625-0.701
			c25.951,0,50.499,4.208,73.644,12.625v59.616c-16.132,5.611-28.055,21.041-28.055,39.277c0,23.145,18.937,42.082,42.082,42.082
			s42.082-18.937,42.082-42.082c0-18.236-11.923-33.666-28.055-39.277V52.603c72.943,37.173,122.74,112.921,122.74,199.89
			C476.932,336.658,429.94,411.003,360.504,448.877z M403.989,222.334c0-7.715,6.312-14.027,14.027-14.027
			c7.715,0,14.027,6.312,14.027,14.027c0,7.715-6.312,14.027-14.027,14.027C410.301,236.362,403.989,230.049,403.989,222.334z
			 M119.233,294.575c0,7.715-6.312,14.027-14.027,14.027s-14.027-6.312-14.027-14.027c0-7.715,6.312-14.027,14.027-14.027
			S119.233,286.86,119.233,294.575z M166.926,153.6c0,7.715-6.312,14.027-14.027,14.027c-7.715,0-14.027-6.312-14.027-14.027
			c0-7.715,6.312-14.027,14.027-14.027C161.315,139.573,166.926,145.885,166.926,153.6z"/>
	</g>
</g>
<g>
</g>
<g>
</g>
<g>
</g>
<g>
</g>
<g>
</g>
<g>
</g>
<g>
</g>
<g>
</g>
<g>
</g>
<g>
</g>
<g>
</g>
<g>
</g>
<g>
</g>
<g>
</g>
<g>
</g>
</symbol>


<symbol id="icon-innovation" viewBox="0 0 512 512.00218">
<title>innovation</title>
<path d="m360.023438 97.917969c-38.75-31.503907-89.542969-43.613281-139.367188-33.230469-64.742188 13.496094-115.921875 66.914062-127.140625 132.117188-9.84375 57.1875 9.851563 111.496093 48.390625 148.394531 24.84375 23.785156 39.09375 56.882812 39.09375 90.804687v31c0 24.8125 20.1875 45 45 45h60c24.8125 0 45-20.1875 45-45 0-27.410156 0 25.652344 0-39.929687 0-29.058594 13.523438-57.796875 38.082031-80.917969 32.992188-31.0625 51.914063-74.855469 51.914063-120.152344.003906-49.894531-22.222656-96.578125-60.972656-128.085937zm-74.023438 384.082031h-60c-8.269531 0-15-6.730469-15-15v-16h90v16c0 8.269531-6.730469 15-15 15zm-30-163.039062-40.699219-61.046876 10.699219-10.699218 19.394531 19.394531c5.855469 5.855469 15.355469 5.855469 21.210938 0l19.394531-19.394531 10.699219 10.699218zm92.519531 5.351562c-28.984375 27.289062-45.648437 61.414062-47.371093 96.6875h-30.148438v-70.457031l56.65625-84.984375 28.949219-28.949219c5.859375-5.859375 5.859375-15.355469 0-21.214844-5.859375-5.855469-15.355469-5.855469-21.214844 0l-19.390625 19.394531-19.394531-19.394531c-5.859375-5.855469-15.355469-5.855469-21.214844 0l-19.394531 19.394531-19.390625-19.394531c-5.859375-5.855469-15.355469-5.855469-21.214844 0l-19.394531 19.394531-19.394532-19.394531c-5.855468-5.855469-15.351562-5.855469-21.210937 0-5.859375 5.859375-5.859375 15.355469 0 21.214844l28.949219 28.949219 56.65625 84.984375v70.457031h-30.746094c-3.648438-36.683594-20.542969-71.566406-47.597656-97.472656-33.015625-31.605469-47.4375-75.941406-39.574219-121.636719 9.203125-53.488281 50.875-96.824219 103.695313-107.835937 40.941406-8.535157 82.609374 1.359374 114.320312 27.140624 31.714844 25.785157 49.902344 63.984376 49.902344 104.804688.003906 37.609375-15.082032 72.523438-42.476563 98.3125zm0 0"/><path d="m60 226c0-8.28125-6.714844-15-15-15h-30c-8.28125 0-15 6.71875-15 15 0 8.285156 6.71875 15 15 15h30c8.285156 0 15-6.714844 15-15zm0 0"/><path d="m497 211h-30c-8.285156 0-15 6.71875-15 15 0 8.285156 6.714844 15 15 15h30c8.28125 0 15-6.714844 15-15 0-8.28125-6.71875-15-15-15zm0 0"/><path d="m81.632812 108.011719-25.980468-15c-7.171875-4.144531-16.347656-1.683594-20.488282 5.492187-4.140624 7.171875-1.683593 16.347656 5.488282 20.488282l25.980468 15c7.171876 4.140624 16.351563 1.6875 20.492188-5.488282 4.140625-7.175781 1.683594-16.347656-5.492188-20.492187zm0 0"/><path d="m471.34375 333.011719-25.980469-15c-7.175781-4.144531-16.347656-1.683594-20.488281 5.488281-4.144531 7.175781-1.6875 16.347656 5.488281 20.492188l25.980469 15c7.167969 4.140624 16.34375 1.6875 20.488281-5.492188 4.144531-7.171875 1.6875-16.347656-5.488281-20.488281zm0 0"/><path d="m138.007812 48.484375c4.144532 7.175781 13.320313 9.628906 20.492188 5.488281s9.632812-13.316406 5.488281-20.488281l-15-25.980469c-4.140625-7.175781-13.316406-9.632812-20.488281-5.492187-7.175781 4.144531-9.632812 13.316406-5.492188 20.492187zm0 0"/><path d="m66.632812 318.011719-25.980468 15c-7.171875 4.140625-9.628906 13.316406-5.488282 20.488281 4.144532 7.179688 13.320313 9.632812 20.488282 5.492188l25.980468-15c7.175782-4.144532 9.632813-13.316407 5.492188-20.492188-4.140625-7.171875-13.316406-9.632812-20.492188-5.488281zm0 0"/><path d="m445.363281 133.992188 25.980469-15c7.175781-4.140626 9.632812-13.316407 5.488281-20.488282-4.140625-7.175781-13.3125-9.632812-20.488281-5.492187l-25.980469 15c-7.175781 4.144531-9.632812 13.316406-5.488281 20.492187 4.140625 7.171875 13.3125 9.632813 20.488281 5.488282zm0 0"/><path d="m353.5 53.972656c7.167969 4.140625 16.34375 1.691406 20.488281-5.488281l15-25.980469c4.144531-7.175781 1.683594-16.347656-5.488281-20.492187-7.175781-4.140625-16.351562-1.683594-20.492188 5.492187l-15 25.980469c-4.140624 7.171875-1.683593 16.347656 5.492188 20.488281zm0 0"/>
</symbol>

<symbol id="icon-circuit-board" viewBox="0 0 496 496" style="enable-background:new 0 0 496 496;">
<title>circuit-board</title>
<g>
	<g>
		<g>
			<path d="M92.688,0L48,44.688V80H0v112h48v128H0v64h48v112h448V0H92.688z M16,176V96h96v80H16z M16,368v-32h96v32H16z M480,480H64
				v-96h64v-24h16v-16h-16v-24H64V192h64v-16h16v-16h-16v-48h16V96h-16V80H64V51.312L99.312,16H480V480z"/>
			<path d="M304,448h112v-16h16v-16h-16v-16h16v-16h-16v-16h16v-16h-16v-16h16v-16h-16v-16h16v-16h-16v-16h16v-16h-16v-16h16v-16
				h-16v-16h16v-16h-16v-16h16v-16h-16v-16h16v-16h-16v-16h16V96h-16V80h16V64h-16V48H304v16h-16v16h16v16h-16v16h16v16h-16v16h16
				v16h-16v16h16v16h-16v16h16v16h-16v16h16v16h-16v16h16v16h-16v16h16v16h-16v16h16v16h-16v16h16v16h-16v16h16v16h-16v16h16V448z
				 M320,64h80v368h-80V64z"/>
			<circle cx="360" cy="88" r="8"/>
			<path d="M256,64h-64v48h64V64z M240,96h-32V80h32V96z"/>
			<path d="M256,144h-64v48h64V144z M240,176h-32v-16h32V176z"/>
			<path d="M144,216v16h-16v-16h-16v16H96v48h16v16h16v-16h16v16h16v-16h16v16h16v-16h16v-48h-16v-16h-16v16h-16v-16H144z M192,248
				v16h-80v-16H192z"/>
			<path d="M112,400c-17.648,0-32,14.352-32,32s14.352,32,32,32s32-14.352,32-32S129.648,400,112,400z M112,448
				c-8.824,0-16-7.176-16-16c0-8.824,7.176-16,16-16c8.816,0,16,7.176,16,16C128,440.824,120.816,448,112,448z"/>
			<path d="M192,400c-17.648,0-32,14.352-32,32s14.352,32,32,32s32-14.352,32-32S209.648,400,192,400z M192,448
				c-8.824,0-16-7.176-16-16c0-8.824,7.176-16,16-16c8.816,0,16,7.176,16,16C208,440.824,200.816,448,192,448z"/>
			<rect x="176" y="336" width="16" height="32"/>
			<rect x="208" y="336" width="16" height="32"/>
			<rect x="240" y="336" width="16" height="32"/>
			<circle cx="96" cy="48" r="8"/>
		</g>
	</g>
</g>
<g>
</g>
<g>
</g>
<g>
</g>
<g>
</g>
<g>
</g>
<g>
</g>
<g>
</g>
<g>
</g>
<g>
</g>
<g>
</g>
<g>
</g>
<g>
</g>
<g>
</g>
<g>
</g>
<g>
</g>
</symbol>

<symbol id="icon-mechanical-arm" viewBox="0 0 480 480.68" >
<title>mechanical-arm</title>

<path d="m280.339844 408.679688h-48v-96c0-10.125-3.226563-19.984376-9.207032-28.152344l-82.703124-135.414063c.773437-1.984375 1.433593-4.007812 1.972656-6.066406l194.035156-67.199219-6.601562 14.175782c-2.292969 4.90625-1.914063 10.640624 1.007812 15.199218 2.917969 4.640625 8.015625 7.457032 13.496094 7.457032h16v16h-16c-4.417969 0-8 3.582031-8 8v24c-2.121094 0-4.15625.84375-5.65625 2.34375l-24 24c-2.339844 2.339843-3 5.878906-1.65625 8.90625l32 72c1.285156 2.886718 4.148437 4.75 7.3125 4.75h24c4.417968 0 8-3.582032 8-8v-88h16v88c0 4.417968 3.582031 8 8 8h24c3.164062 0 6.027344-1.863282 7.3125-4.75l32-72c1.34375-3.027344.683594-6.566407-1.65625-8.90625l-24-24c-1.5-1.5-3.535156-2.34375-5.65625-2.34375v-24c0-4.417969-3.582032-8-8-8h-16v-16h14.9375c4.578125.015624 8.945312-1.941407 11.984375-5.371094 3.039062-3.425782 4.457031-7.996094 3.894531-12.539063l-6.878906-54.496093c-.257813-2.042969-1.292969-3.910157-2.890625-5.210938l-35.863281-29.175781c-3.609376-3.945313-8.953126-5.8359378-14.242188-5.03125-5.292969.800781-9.832031 4.191406-12.109375 9.03125l-4.640625 9.992187-33.101562-19.878906-242.503907 72.753906c-24.914062.589844-46.425781 17.589844-52.753906 41.691406-6.332031 24.101563 4.050781 49.480469 25.457031 62.234376l76.710938 138.074218v29.925782h-88v64h-16v56h-32v16h480v-16h-200zm80-216h-16v16h16v8h-8v16h8v24h-10.800782l-27.65625-62.222657 17.769532-17.777343h20.6875zm86.457031 1.777343-27.65625 62.222657h-10.800781v-24h8v-16h-8v-8h16v-16h-16v-16h20.6875zm-30.457031-33.777343h-64v-16h64zm-24-32h-16v-16h16zm-10.632813-112c.351563.433593.746094.832031 1.175781 1.183593l33.921876 27.617188 6.472656 51.199219-22.746094.039062c-.070312 0-.128906-.039062-.191406-.039062h-32c-.160156 0-.304688.082031-.464844.097656h-23.535156l8.296875-17.824219 12.199219 7.320313c8.550781 5.210937 19.238281 5.445312 28.003906.605468 8.769531-4.839844 14.269531-14.007812 14.414062-24.019531.144532-10.015625-5.089844-19.335937-13.714844-24.425781l-17.199218-10.28125zm3.609375 35.511718c5.632813 3.382813 7.457032 10.691406 4.074219 16.324219-3.378906 5.632813-10.6875 7.457031-16.324219 4.078125l-27.8125-16.714844-201.074218 69.601563c-1.074219-18.628907-11.355469-35.5-27.421876-44.992188l210.496094-63.128906zm-336.976562 76.488282c0-22.089844 17.910156-40 40-40s40 17.910156 40 40c-.046875 6.695312-1.792969 13.269531-5.078125 19.105468l-1.753907 1.0625.625 1.015625c-9.425781 15.140625-27.753906 22.1875-44.894531 17.265625s-28.9375-20.617187-28.898437-38.449218zm40 56c16.535156 0 32.222656-7.324219 42.839844-20l61.601562 100.800781c-2.785156-.519531-5.609375-.785157-8.441406-.800781-18.121094.023437-34.683594 10.25-42.824219 26.441406l-59.335937-106.800782c2.046874.234376 4.101562.351563 6.160156.359376zm64 128c0-17.671876 14.328125-32 32-32s32 14.328124 32 32v96h-64zm-88 48h72v48h-72zm-16 104v-40h216v40zm0 0"/><path d="m184.339844 336.679688c13.253906 0 24-10.746094 24-24 0-13.253907-10.746094-24-24-24s-24 10.746093-24 24c0 13.253906 10.746094 24 24 24zm0-32c4.417968 0 8 3.582031 8 8 0 4.417968-3.582032 8-8 8-4.417969 0-8-3.582032-8-8 0-4.417969 3.582031-8 8-8zm0 0"/><path d="m88.339844 152.679688c13.253906 0 24-10.746094 24-24 0-13.253907-10.746094-24-24-24s-24 10.746093-24 24c0 13.253906 10.746094 24 24 24zm0-32c4.417968 0 8 3.582031 8 8 0 4.417968-3.582032 8-8 8-4.417969 0-8-3.582032-8-8 0-4.417969 3.582031-8 8-8zm0 0"/><path d="m72.339844 368.679688h16v16h-16zm0 0"/><path d="m160.339844 384.679688h16v16h-16zm0 0"/><path d="m192.339844 384.679688h16v16h-16zm0 0"/>
</symbol>

<symbol id="icon-robot-head" viewBox="0 0 464.976 464.976" >
<title>robot-head</title>
<g>
	<g>
		<path d="M177.928,140.176c-19.131,0-34.64,15.509-34.64,34.64c0,19.131,15.509,34.64,34.64,34.64s34.64-15.509,34.64-34.64
			C212.568,155.685,197.059,140.176,177.928,140.176z M178.008,193.456c-10.295,0-18.64-8.345-18.64-18.64
			c0-10.295,8.345-18.64,18.64-18.64c10.295,0,18.64,8.345,18.64,18.64C196.648,185.111,188.303,193.456,178.008,193.456z"/>
	</g>
</g>
<g>
	<g>
		<path d="M286.968,140.176c-19.131,0-34.64,15.509-34.64,34.64s15.509,34.64,34.64,34.64c19.131,0,34.64-15.509,34.64-34.64
			C321.608,155.685,306.099,140.176,286.968,140.176z M286.968,193.536c-10.295,0-18.64-8.345-18.64-18.64
			c0-10.295,8.345-18.64,18.64-18.64c10.295,0,18.64,8.345,18.64,18.64C305.608,185.191,297.263,193.536,286.968,193.536z"/>
	</g>
</g>
<g>
	<g>
		<path d="M286.968,245.936h-108.96c-4.418,0-8,3.582-8,8c0,4.418,3.582,8,8,8h108.96c4.418,0,8-3.582,8-8
			C294.968,249.518,291.386,245.936,286.968,245.936z"/>
	</g>
</g>
<g>
	<g>
		<path d="M359.448,378.016l0-0.56h-52.4v-53.84h34.72c9.323,0,16.88-7.557,16.88-16.88v-44
			c27.106-4.251,45.634-29.672,41.382-56.778c-3.343-21.317-20.065-38.039-41.382-41.382v-44.08c0-9.323-7.557-16.88-16.88-16.88
			h-72l25.84-48c15.16,3.471,30.263-6.006,33.734-21.166c3.471-15.16-6.006-30.263-21.166-33.734
			c-15.16-3.47-30.263,6.006-33.734,21.166c-2.111,9.224,0.551,18.891,7.086,25.734l-29.92,56h-38.24l-30-55.52
			c10.862-11.315,10.495-29.293-0.82-40.155c-11.315-10.862-29.293-10.495-40.155,0.82c-10.862,11.315-10.495,29.293,0.82,40.155
			c6.921,6.644,16.729,9.345,26.075,7.18l25.84,48h-72c-9.323,0-16.88,7.557-16.88,16.88v0v44.08
			c-27.106,4.251-45.634,29.672-41.382,56.778c3.343,21.317,20.065,38.039,41.382,41.382v44.08c0,9.323,7.557,16.88,16.88,16.88h0
			h34.72v53.84h-52.32c-24.013,0-43.48,19.467-43.48,43.48c0,24.013,19.467,43.48,43.48,43.48h253.92
			c24.013,0,43.48-19.467,43.48-43.48C402.928,397.483,383.461,378.016,359.448,378.016z M358.568,180.816
			c18.115,4.415,29.221,22.679,24.806,40.794c-2.986,12.253-12.553,21.82-24.806,24.806V180.816z M290.796,22.668
			c2.078-4.016,6.211-6.547,10.733-6.572c6.716-0.037,12.19,5.376,12.227,12.092s-5.377,12.19-12.092,12.227
			c-1.967,0.011-3.908-0.456-5.655-1.36C290.043,35.97,287.71,28.633,290.796,22.668z M169.688,38.656v-0.32
			c-5.574,3.746-13.129,2.265-16.876-3.309s-2.265-13.129,3.309-16.876c2.159-1.451,4.727-2.172,7.327-2.056
			c6.716,0.034,12.133,5.505,12.099,12.221C175.526,32.548,173.307,36.464,169.688,38.656z M106.408,246.336
			c-18.115-4.415-29.221-22.679-24.806-40.794c2.986-12.253,12.553-21.82,24.806-24.806V246.336z M123.288,307.616v-0.08
			c-0.486,0-0.88-0.394-0.88-0.88v-186.16c0-0.486,0.394-0.88,0.88-0.88h218.4c0.486,0,0.88,0.394,0.88,0.88v186.24
			c0,0.486-0.394,0.88-0.88,0.88H123.288z M291.288,323.536v53.84h-117.36v-53.76L291.288,323.536z M359.448,448.096h-253.92
			c-15.177,0-27.48-12.303-27.48-27.48c0-15.177,12.303-27.48,27.48-27.48h253.92c15.177,0,27.48,12.303,27.48,27.48
			C386.928,435.793,374.625,448.096,359.448,448.096z"/>
	</g>
</g>
<g>
</g>
<g>
</g>
<g>
</g>
<g>
</g>
<g>
</g>
<g>
</g>
<g>
</g>
<g>
</g>
<g>
</g>
<g>
</g>
<g>
</g>
<g>
</g>
<g>
</g>
<g>
</g>
<g>
</g>
</symbol>

<symbol id="icon-guitar-pedal" viewBox="0 0 426.014 426.014" >
<title>guitar-pedal</title>
<g>
	<path d="M292.333,292.708H134.451c-2.209,0-4-1.791-4-4s1.791-4,4-4h157.881c2.209,0,4,1.791,4,4S294.542,292.708,292.333,292.708z
		"/>
	<path d="M292.333,310.527H134.451c-2.209,0-4-1.791-4-4s1.791-4,4-4h157.881c2.209,0,4,1.791,4,4S294.542,310.527,292.333,310.527z
		"/>
	<path d="M292.333,328.347H134.451c-2.209,0-4-1.791-4-4s1.791-4,4-4h157.881c2.209,0,4,1.791,4,4S294.542,328.347,292.333,328.347z
		"/>
	<path d="M292.333,346.167H134.451c-2.209,0-4-1.791-4-4s1.791-4,4-4h157.881c2.209,0,4,1.791,4,4S294.542,346.167,292.333,346.167z
		"/>
	<path d="M292.333,363.987H134.451c-2.209,0-4-1.791-4-4s1.791-4,4-4h157.881c2.209,0,4,1.791,4,4S294.542,363.987,292.333,363.987z
		"/>
	<path d="M292.333,381.807H134.451c-2.209,0-4-1.791-4-4s1.791-4,4-4h157.881c2.209,0,4,1.791,4,4S294.542,381.807,292.333,381.807z
		"/>
</g>
<g>
	<path d="M313.045,260.528H113.74c-2.209,0-4,1.791-4,4v137.458c0,2.209,1.791,4,4,4h199.305c2.209,0,4-1.791,4-4V264.528
		C317.045,262.319,315.254,260.528,313.045,260.528z M309.045,397.986H117.74V268.528h191.305V397.986z"/>
	<path d="M125.499,174.772c0.792,0.922,1.911,1.395,3.037,1.395c0.922,0,1.849-0.317,2.604-0.965
		c1.676-1.439,1.869-3.964,0.43-5.641l-7.26-8.457h23.299c2.209,0,4-1.791,4-4s-1.791-4-4-4h-23.299l7.26-8.456
		c1.439-1.676,1.247-4.201-0.429-5.64c-1.676-1.439-4.202-1.247-5.64,0.429l-12.932,15.062c-1.287,1.499-1.287,3.712,0,5.211
		L125.499,174.772z"/>
	<path d="M125.499,229.721c0.792,0.922,1.911,1.395,3.037,1.395c0.922,0,1.849-0.317,2.604-0.965
		c1.676-1.439,1.869-3.964,0.43-5.641l-7.26-8.457h23.299c2.209,0,4-1.791,4-4s-1.791-4-4-4h-23.299l7.26-8.456
		c1.439-1.676,1.247-4.201-0.429-5.64c-1.676-1.439-4.202-1.247-5.64,0.429l-12.932,15.062c-1.287,1.499-1.287,3.712,0,5.211
		L125.499,229.721z"/>
	<path d="M279.176,216.053h23.299l-7.26,8.457c-1.438,1.676-1.247,4.201,0.43,5.64c0.755,0.648,1.682,0.965,2.604,0.965
		c1.126,0,2.246-0.473,3.037-1.395l12.932-15.062c1.286-1.499,1.286-3.712,0-5.211l-12.932-15.062
		c-1.44-1.676-3.965-1.868-5.641-0.429c-1.677,1.439-1.868,3.964-0.43,5.64l7.26,8.456h-23.299c-2.209,0-4,1.791-4,4
		S276.967,216.053,279.176,216.053z"/>
	<path d="M279.176,161.104h23.299l-7.26,8.457c-1.438,1.676-1.247,4.201,0.43,5.64c0.755,0.648,1.682,0.965,2.604,0.965
		c1.126,0,2.246-0.473,3.037-1.395l12.932-15.062c1.286-1.499,1.286-3.712,0-5.211l-12.932-15.062
		c-1.44-1.676-3.965-1.868-5.641-0.429c-1.677,1.439-1.868,3.964-0.43,5.64l7.26,8.456h-23.299c-2.209,0-4,1.791-4,4
		S276.967,161.104,279.176,161.104z"/>
	<path d="M350.099,177.746c2.209,0,4-1.791,4-4v-33.283c0-2.209-1.791-4-4-4H336.57v-9.739c0-7.944-6.142-14.47-13.925-15.107V0
		H104.149v111.617c-7.787,0.633-13.934,7.16-13.934,15.108v9.739H76.689c-2.209,0-4,1.791-4,4v33.283c0,2.209,1.791,4,4,4h13.526
		v11.866h-14.3c-2.209,0-4,1.791-4,4v33.283c0,2.209,1.791,4,4,4h14.3v179.949c0,8.365,6.806,15.17,15.17,15.17h216.014
		c8.365,0,15.171-6.806,15.171-15.17V230.895h13.529c2.209,0,4-1.791,4-4v-33.283c0-2.209-1.791-4-4-4H336.57v-11.866H350.099z
		 M80.689,169.746v-25.283h9.526v25.283H80.689z M79.915,222.895v-25.283h10.3v25.283H79.915z M314.645,8v103.554H112.149V8H314.645
		z M328.57,410.844c0,3.954-3.217,7.17-7.171,7.17H105.385c-3.954,0-7.17-3.217-7.17-7.17V126.725c0-3.954,3.217-7.17,7.17-7.17
		h216.014c3.954,0,7.171,3.217,7.171,7.17V410.844z M346.099,144.463v25.283h-9.529v-25.283H346.099z M346.099,197.612v25.283
		h-9.529v-25.283H346.099z"/>
	<path d="M138.603,90.423c11.167,0,20.252-9.085,20.252-20.252s-9.085-20.252-20.252-20.252s-20.252,9.085-20.252,20.252
		S127.436,90.423,138.603,90.423z M134.603,58.602v6.151c0,2.209,1.791,4,4,4s4-1.791,4-4v-6.151
		c4.795,1.663,8.252,6.215,8.252,11.568c0,6.756-5.497,12.252-12.252,12.252s-12.252-5.497-12.252-12.252
		C126.35,64.817,129.808,60.266,134.603,58.602z"/>
	<path d="M188.313,90.423c11.167,0,20.252-9.085,20.252-20.252s-9.085-20.252-20.252-20.252s-20.252,9.085-20.252,20.252
		S177.146,90.423,188.313,90.423z M184.313,58.602v6.151c0,2.209,1.791,4,4,4s4-1.791,4-4v-6.151
		c4.795,1.663,8.252,6.215,8.252,11.568c0,6.756-5.497,12.252-12.252,12.252s-12.252-5.497-12.252-12.252
		C176.061,64.817,179.518,60.266,184.313,58.602z"/>
	<path d="M217.771,70.171c0,11.167,9.085,20.252,20.253,20.252c11.167,0,20.252-9.085,20.252-20.252s-9.085-20.252-20.252-20.252
		C226.856,49.918,217.771,59.004,217.771,70.171z M234.024,58.602v6.151c0,2.209,1.791,4,4,4s4-1.791,4-4v-6.151
		c4.795,1.663,8.252,6.215,8.252,11.568c0,6.756-5.496,12.252-12.252,12.252s-12.253-5.497-12.253-12.252
		C225.771,64.817,229.229,60.266,234.024,58.602z"/>
	<path d="M287.735,90.423c11.167,0,20.252-9.085,20.252-20.252s-9.085-20.252-20.252-20.252c-11.168,0-20.253,9.085-20.253,20.252
		S276.567,90.423,287.735,90.423z M283.735,58.602v6.151c0,2.209,1.791,4,4,4s4-1.791,4-4v-6.151
		c4.795,1.663,8.252,6.215,8.252,11.568c0,6.756-5.496,12.252-12.252,12.252s-12.253-5.497-12.253-12.252
		C275.482,64.817,278.94,60.266,283.735,58.602z"/>
	<path d="M213.397,42.827c6.687,0,12.126-5.439,12.126-12.126s-5.439-12.126-12.126-12.126s-12.126,5.44-12.126,12.126
		S206.711,42.827,213.397,42.827z M213.397,26.574c2.275,0,4.126,1.851,4.126,4.126c0,2.275-1.851,4.126-4.126,4.126
		s-4.126-1.851-4.126-4.126C209.271,28.425,211.122,26.574,213.397,26.574z"/>
</g>
<g>
</g>
<g>
</g>
<g>
</g>
<g>
</g>
<g>
</g>
<g>
</g>
<g>
</g>
<g>
</g>
<g>
</g>
<g>
</g>
<g>
</g>
<g>
</g>
<g>
</g>
<g>
</g>
<g>
</g>
</symbol>

<symbol id="icon-electric-guitar" viewBox="0 0 512.001 512.001" >
<title>electric-guitar</title>
<g>
	<g>
		<path d="M196.607,327.733c0,0-24.401-24.401-24.411-24.411c-8.633-8.633-23.042-8.625-31.668,0c-8.731,8.73-8.731,22.937,0,31.668
			l24.411,24.411c4.229,4.229,9.852,6.559,15.834,6.559c5.981,0,11.604-2.33,15.834-6.559
			C205.338,350.67,205.338,336.464,196.607,327.733z M186.001,348.795c-2.852,2.852-7.607,2.848-10.455,0l-24.411-24.411
			c-2.883-2.883-2.883-7.573,0-10.455c2.852-2.852,7.608-2.847,10.455,0l24.411,24.411
			C188.883,341.222,188.883,345.913,186.001,348.795z"/>
	</g>
</g>
<g>
	<g>
		<path d="M164.073,375.937c0,0-40.044-40.044-40.08-40.08c-3.507-3.509-8.3-5.286-13.103-5.29
			c-4.775-0.004-9.56,1.745-13.104,5.289c0,0-15.013,15.013-15.024,15.024c-7.128,7.128-7.116,19.092,0,26.207
			c0,0,40.052,40.052,40.08,40.08c7.146,7.146,19.066,7.142,26.207,0c0,0,15.015-15.014,15.024-15.023
			C171.215,395.001,171.207,383.07,164.073,375.937z M153.467,391.535c0,0-15.024,15.023-15.024,15.024
			c-1.366,1.366-3.632,1.361-4.993,0l-40.08-40.08c-1.362-1.362-1.357-3.636,0-4.993c0,0,15.024-15.024,15.025-15.025
			c1.362-1.36,3.635-1.356,4.993,0.001c0,0,40.011,40.011,40.08,40.08c0.651,0.652,0.992,1.57,0.995,2.495
			C154.466,389.945,154.142,390.859,153.467,391.535z"/>
	</g>
</g>
<g>
	<g>
		<path d="M61.662,372.473c-2.928-2.93-7.677-2.93-10.606,0l-5.954,5.954c-2.929,2.929-2.929,7.677,0,10.606
			c2.841,2.841,7.691,2.915,10.606,0l5.954-5.954C64.591,380.15,64.591,375.401,61.662,372.473z"/>
	</g>
</g>
<g>
	<g>
		<path d="M127.458,438.267c-2.929-2.929-7.678-2.929-10.607-0.001l-5.954,5.954c-2.929,2.929-2.929,7.678,0,10.607
			c2.833,2.833,7.703,2.903,10.607,0l5.954-5.954C130.387,445.944,130.387,441.195,127.458,438.267z"/>
	</g>
</g>
<g>
	<g>
		<path d="M99.32,423.829c-0.278-4.133-3.857-7.256-7.985-6.98c-2.13,0.143-4.272-0.714-5.906-2.348s-2.49-3.787-2.348-5.906
			c0.277-4.133-2.848-7.708-6.981-7.986c-4.127-0.276-7.708,2.848-7.985,6.98c-0.433,6.438,2.012,12.823,6.707,17.518
			c4.57,4.57,11.046,7.148,17.518,6.707C96.473,431.537,99.598,427.961,99.32,423.829z"/>
	</g>
</g>
<g>
	<g>
		<path d="M491.442,12.071c-2.348,0-4.662,0.398-6.88,1.186l-55.439,19.672c-1.353,0.48-2.539,1.338-3.418,2.472L398.81,70.08
			L236.908,221.809c-7.012-1.294-14.439-3.879-16.224-9.057c-3.127-9.067,9.257-25.725,15.739-32.365
			c0.155-0.158,0.302-0.322,0.442-0.493c10.667-13,9.916-21.99,7.407-27.242c-3.14-6.573-10.509-10.293-20.222-10.225
			c-33.353,0.235-56.01,29.319-68.579,56.877c-16.781,36.79-21.291,46.678-58.424,66.216c-3.666,1.929-5.073,6.464-3.145,10.13
			c1.929,3.665,6.464,5.073,10.13,3.145c41.668-21.926,48.045-35.905,65.086-73.265c9.87-21.639,28.124-47.861,55.047-48.103
			c4.274-0.038,6.313,1.148,6.572,1.691c0.356,0.746,0.134,4.36-5.285,11.038c-1.255,1.315-6.692,7.163-11.566,14.8
			c-8.029,12.582-10.515,23.571-7.39,32.664c2.531,7.364,8.425,12.789,17.583,16.212c0,0-46.345,43.433-46.396,43.481
			c-3.045,2.854-3.12,7.831-0.175,10.775c0,0,34.327,34.327,34.336,34.336c3.031,3.031,7.826,2.775,10.776-0.175l18.079-19.29
			c4.997,9.57,11.689,16.064,19.984,19.368c11.607,4.623,25.935,2.585,41.431-5.894c3.123-1.709,7.11,1.54,5.64,4.915
			c-4.386,10.073-18.96,16.321-33.055,22.364c-10.081,4.322-20.505,8.791-27.949,15.032c-0.152,0.127-0.299,0.26-0.44,0.399
			c-7.606,7.479-14.5,17.195-22.352,31.503c-7.642,13.926-16.209,32.132-27.554,56.994c-8.247,18.073-19.445,29.693-33.284,34.538
			c-16.48,5.769-37.111,2.47-61.323-9.804c-31.769-16.105-58.135-42.471-74.239-74.239c-12.274-24.212-15.572-44.844-9.803-61.323
			c4.845-13.838,16.465-25.037,34.538-33.284c9.274-4.232,16.576-7.602,22.979-10.605c3.75-1.759,5.364-6.225,3.605-9.975
			c-1.759-3.75-6.227-5.364-9.975-3.605c-6.354,2.98-13.61,6.33-22.836,10.54c-21.933,10.008-36.221,24.13-42.468,41.973
			c-7.171,20.484-3.611,45.066,10.582,73.062c17.536,34.59,46.245,63.297,80.835,80.833c18.628,9.444,35.742,14.181,51.146,14.18
			c7.746,0,15.061-1.198,21.915-3.598c17.844-6.247,31.966-20.535,41.974-42.468c23.102-50.627,33.672-71.031,46.558-83.812
			c5.757-4.734,14.622-8.535,24.001-12.556c16.783-7.194,34.137-14.634,40.898-30.162c7.06-16.214-11.225-32.474-26.594-24.062
			c-7.98,4.366-19.435,8.799-28.68,5.116c-6.017-2.396-10.869-8.191-14.458-17.251l113.008-120.583
			c2.832-3.022,2.678-7.769-0.344-10.602c-3.022-2.833-7.769-2.678-10.601,0.344L216.971,306.337l-23.38-23.38L404.2,85.581
			l10.148,10.148l-39.981,42.661c-2.832,3.022-2.678,7.769,0.344,10.601c3.021,2.832,7.769,2.679,10.601-0.344l42.487-45.334
			c0.556,0.02,1.143,0.034,1.79,0.034c10.435,0,36.12-3.168,49.308-32.492c4.39-9.761,14.079-16.068,21.435-19.641
			c5.517-2.68,9.544-7.612,11.051-13.532C514.639,24.89,504.604,12.071,491.442,12.071z M493.776,37.719
			c-13.75,6.679-23.626,16.009-28.561,26.981c-9.252,20.573-26.292,23.645-35.629,23.645c-0.527,0-1.008-0.011-1.435-0.027
			l-13.803-13.803l21.861-28.187c0,0,53.313-18.917,53.368-18.937C496.114,25.071,499.916,34.738,493.776,37.719z"/>
	</g>
</g>
<g>
</g>
<g>
</g>
<g>
</g>
<g>
</g>
<g>
</g>
<g>
</g>
<g>
</g>
<g>
</g>
<g>
</g>
<g>
</g>
<g>
</g>
<g>
</g>
<g>
</g>
<g>
</g>
<g>
</g>
</symbol>





<symbol id="icon-modeling" viewBox="1 0 421.896 421">
<title>modeling</title>
<path d="m211 211.449219c-1.078125 0-2.15625-.25-3.144531-.742188l-98.46875-49.234375c-2.382813-1.191406-3.886719-3.628906-3.886719-6.292968 0-2.664063 1.503906-5.097657 3.886719-6.289063l98.46875-49.234375c1.976562-.988281 4.3125-.988281 6.289062 0l98.46875 49.234375c2.382813 1.191406 3.886719 3.625 3.886719 6.289063 0 2.664062-1.503906 5.101562-3.886719 6.292968l-98.46875 49.234375c-.988281.492188-2.066406.742188-3.144531.742188zm-82.742188-56.269531 82.742188 41.371093 82.738281-41.371093-82.738281-41.367188zm0 0"/><path d="m211 112.980469c-1.078125 0-2.15625-.246094-3.144531-.742188l-98.46875-49.230469c-2.382813-1.191406-3.886719-3.628906-3.886719-6.292968 0-2.664063 1.503906-5.101563 3.886719-6.292969l98.46875-49.230469c1.976562-.992187 4.3125-.992187 6.289062 0l98.46875 49.230469c2.382813 1.191406 3.886719 3.628906 3.886719 6.292969 0 2.664062-1.503906 5.101562-3.886719 6.292968l-98.46875 49.230469c-.988281.496094-2.066406.742188-3.144531.742188zm-82.742188-56.265625 82.742188 41.367187 82.738281-41.367187-82.738281-41.371094zm0 0"/><path d="m211 211.449219c-1.285156 0-2.570312-.355469-3.699219-1.050781-2.070312-1.285157-3.335937-3.546876-3.335937-5.984376v-98.464843c0-2.667969 1.503906-5.101563 3.890625-6.292969l98.464843-49.234375c2.175782-1.085937 4.765626-.972656 6.839844.308594 2.074219 1.28125 3.339844 3.546875 3.339844 5.984375v98.464844c0 2.664062-1.503906 5.101562-3.890625 6.292968l-98.464844 49.234375c-.992187.492188-2.070312.742188-3.144531.742188zm7.035156-101.152344v82.738281l84.398438-42.203125v-82.738281zm0 0"/><path d="m211 211.449219c-1.074219 0-2.152344-.25-3.144531-.742188l-98.46875-49.234375c-2.382813-1.191406-3.886719-3.628906-3.886719-6.292968v-98.464844c0-2.4375 1.261719-4.703125 3.335938-5.984375 2.078124-1.28125 4.664062-1.390625 6.84375-.308594l98.464843 49.234375c2.386719 1.191406 3.890625 3.625 3.890625 6.292969v98.464843c0 2.4375-1.265625 4.699219-3.335937 5.984376-1.128907.695312-2.414063 1.050781-3.699219 1.050781zm-91.433594-60.617188 84.398438 42.203125v-82.738281l-84.398438-42.203125zm0 0"/><path d="m203.964844 7.480469h14.066406v98.46875h-14.066406zm0 0"/><path d="m414.964844 338.046875h-407.929688c-3.886718 0-7.035156-3.144531-7.035156-7.03125v-267.269531c0-3.882813 3.148438-7.03125 7.035156-7.03125h105.5v14.066406h-98.46875v253.199219h393.867188v-253.199219h-98.46875v-14.066406h105.5c3.890625 0 7.035156 3.148437 7.035156 7.035156v267.265625c0 3.886719-3.144531 7.03125-7.035156 7.03125zm0 0"/><path d="m386.832031 309.914062h-351.664062c-3.886719 0-7.035157-3.144531-7.035157-7.035156v-210.996094c0-3.886718 3.148438-7.035156 7.035157-7.035156h77.367187v14.066406h-70.335937v196.933594h337.601562v-196.933594h-70.335937v-14.066406h77.367187c3.890625 0 7.035157 3.148438 7.035157 7.035156v211c0 3.886719-3.144532 7.03125-7.035157 7.03125zm0 0"/><path d="m253.199219 394.316406h-84.398438c-3.882812 0-7.035156-3.148437-7.035156-7.035156v-56.265625c0-3.890625 3.148437-7.035156 7.035156-7.035156h84.398438c3.890625 0 7.035156 3.144531 7.035156 7.035156v56.265625c0 3.886719-3.148437 7.035156-7.035156 7.035156zm-77.367188-14.070312h70.335938v-42.199219h-70.335938zm0 0"/><path d="m302.433594 422.449219h-182.867188c-3.191406 0-5.980468-2.144531-6.796875-5.230469-.820312-3.082031.539063-6.332031 3.308594-7.910156l49.230469-28.132813c1.0625-.605469 2.269531-.929687 3.488281-.929687h84.402344c1.222656 0 2.421875.324218 3.488281.929687l49.234375 28.132813c2.765625 1.578125 4.125 4.828125 3.308594 7.910156-.816407 3.085938-3.609375 5.230469-6.796875 5.230469zm-156.382813-14.066407h129.898438l-24.617188-14.066406h-80.664062zm0 0"/>
</symbol>



<symbol id="icon-sketch" viewBox="0 0 511.999 511.999">
<title>sketch</title>
<g>
	<g>
		<path d="M453.034,361.322c-2.808-1.164-6.04-0.521-8.19,1.628l-82.126,82.126c-2.149,2.15-2.792,5.382-1.628,8.19
			c1.162,2.809,3.904,4.639,6.943,4.639h82.126c4.151,0,7.515-3.364,7.515-7.515v-82.126
			C457.673,365.225,455.842,362.485,453.034,361.322z M386.173,442.876l56.469-56.469v56.469H386.173z"/>
	</g>
</g>
<g>
	<g>
		<path d="M507.361,240.867c-2.808-1.164-6.04-0.521-8.19,1.628l-22.507,22.507V111.971c0-4.151-3.365-7.515-7.515-7.515h-57.741
			l20.96-20.96c0.003-0.003,0.006-0.007,0.009-0.01l20.196-20.196c4.327-4.327,6.71-10.083,6.71-16.203s-2.383-11.874-6.71-16.203
			L429.219,7.53c-4.327-4.327-10.083-6.71-16.203-6.71s-11.875,2.383-16.203,6.71l-20.206,20.206l-24.416,24.416l-52.303,52.303
			H66.62V30.11c0-4.151-3.365-7.515-7.515-7.515C26.515,22.597,0,49.11,0,81.702v319.186c0,0.555,0.064,1.095,0.178,1.615
			c1.038,13.829,7.021,26.678,17.02,36.432C27.886,449.359,41.995,455.1,56.927,455.1h229.638l-43.249,43.249
			c-2.149,2.15-2.792,5.381-1.629,8.19c1.163,2.808,3.904,4.639,6.943,4.639h255.855c4.15,0,7.515-3.364,7.515-7.515V247.81
			C512,244.771,510.168,242.03,507.361,240.867z M407.443,18.159c3.072-3.074,8.077-3.074,11.149,0l23.355,23.355
			c3.074,3.073,3.074,8.076,0,11.15l-14.891,14.892L392.55,33.051L407.443,18.159z M381.922,43.679l34.505,34.504l-13.789,13.789
			l-34.503-34.504L381.922,43.679z M496.972,332.252h-13.865c-4.151,0-7.515,3.364-7.515,7.515c0,4.151,3.364,7.515,7.515,7.515
			h13.865v22.646h-13.865c-4.151,0-7.515,3.364-7.515,7.515s3.364,7.515,7.515,7.515h13.865v22.645h-13.865
			c-4.151,0-7.515,3.364-7.515,7.515c0,4.151,3.364,7.515,7.515,7.515h13.865v22.646h-13.865c-4.151,0-7.515,3.365-7.515,7.515
			c0,4.151,3.364,7.515,7.515,7.515h13.865v35.842h-230.2l75.908-75.907c2.935-2.936,2.935-7.693,0-10.628
			c-0.337-0.337-0.699-0.629-1.078-0.889c-2.926-2.004-6.952-1.709-9.551,0.889l-30.456,30.456H56.928
			c-22.792,0-41.14-17.794-41.862-40.545c0.043-1.428,0.154-2.844,0.332-4.244c0.001-0.008,0.002-0.016,0.003-0.024
			c0.084-0.665,0.185-1.327,0.3-1.985c0.013-0.075,0.027-0.15,0.04-0.225c0.105-0.587,0.223-1.171,0.352-1.753
			c0.036-0.162,0.074-0.324,0.112-0.485c0.114-0.492,0.237-0.981,0.369-1.468c0.072-0.264,0.147-0.525,0.224-0.788
			c0.11-0.382,0.224-0.763,0.345-1.14c0.121-0.377,0.25-0.75,0.381-1.123c0.091-0.261,0.181-0.522,0.279-0.781
			c0.183-0.492,0.377-0.979,0.577-1.462c0.057-0.139,0.113-0.28,0.172-0.419c0.257-0.6,0.524-1.193,0.806-1.779
			c0.012-0.025,0.023-0.05,0.035-0.075c5.878-12.164,17.183-21.233,30.75-24.047c0.038-0.008,0.076-0.017,0.114-0.025
			c0.622-0.127,1.25-0.236,1.882-0.337c0.105-0.017,0.21-0.038,0.317-0.054c0.571-0.087,1.148-0.155,1.725-0.22
			c0.162-0.018,0.323-0.043,0.486-0.059c0.557-0.056,1.119-0.093,1.681-0.128c0.178-0.011,0.356-0.03,0.534-0.039
			c0.736-0.037,1.478-0.056,2.223-0.056c4.15,0,7.515-3.364,7.515-7.515v-54.489c0-4.151-3.365-7.515-7.515-7.515
			c-4.15,0-7.515,3.364-7.515,7.515v47.447c-12.69,1.605-24.469,7.265-33.757,16.335c-0.977,0.954-1.903,1.946-2.805,2.954V81.702
			c0-21.741,15.826-39.858,36.561-43.436v73.705v152.777v0.001c0,4.15,3.365,7.515,7.515,7.515c4.15,0,7.515-3.365,7.515-7.515
			v-0.001V119.486h218.24l-41.544,41.544c-2.935,2.936-2.935,7.693,0,10.628c2.935,2.934,7.693,2.934,10.627,0l54.373-54.373
			c0.002-0.002,0.003-0.004,0.005-0.005l49.185-49.185l34.503,34.505l-4.048,4.048c-0.003,0.003-0.007,0.006-0.01,0.009
			l-151.528,151.53l-34.504-34.504l29.868-29.868c2.935-2.936,2.935-7.693,0-10.628c-2.935-2.934-7.693-2.934-10.627,0
			l-35.183,35.182c-0.188,0.188-0.364,0.387-0.529,0.591c-0.055,0.068-0.104,0.141-0.156,0.212c-0.106,0.141-0.21,0.283-0.307,0.431
			c-0.055,0.086-0.105,0.174-0.157,0.263c-0.083,0.14-0.163,0.282-0.236,0.427c-0.048,0.094-0.091,0.189-0.135,0.287
			c-0.067,0.147-0.129,0.297-0.186,0.447c-0.02,0.053-0.046,0.103-0.065,0.156l-14.641,41.475l-9.982,28.279
			c-0.132,0.376-0.227,0.758-0.298,1.143h-24.992c-4.15,0-7.515,3.364-7.515,7.515c0,4.151,3.365,7.515,7.515,7.515h208.114
			c4.151,0,7.515-3.364,7.515-7.515c0-4.151-3.364-7.515-7.515-7.515H193.093l45.83-16.178c0.038-0.014,0.074-0.033,0.112-0.047
			c0.178-0.066,0.353-0.14,0.526-0.219c0.069-0.032,0.138-0.062,0.205-0.095c0.18-0.09,0.357-0.189,0.531-0.295
			c0.056-0.034,0.114-0.065,0.169-0.1c0.181-0.116,0.357-0.243,0.53-0.377c0.043-0.033,0.088-0.062,0.13-0.096
			c0.209-0.168,0.414-0.349,0.608-0.543l154.644-154.643h65.255v160.546L354.137,387.53c-2.935,2.936-2.935,7.693,0,10.628
			c0.183,0.183,0.374,0.355,0.571,0.516c1.378,1.123,3.061,1.685,4.743,1.685s3.366-0.562,4.743-1.685
			c0.197-0.16,0.388-0.333,0.571-0.516c0.003-0.003,0,0,0.003-0.003L496.972,265.95V332.252z M222.677,265.696l-21.526,7.599
			l-14.342-14.342l7.599-21.526L222.677,265.696z"/>
	</g>
</g>
<g>
</g>
<g>
</g>
<g>
</g>
<g>
</g>
<g>
</g>
<g>
</g>
<g>
</g>
<g>
</g>
<g>
</g>
<g>
</g>
<g>
</g>
<g>
</g>
<g>
</g>
<g>
</g>
<g>
</g>
</symbol>


<symbol id="icon-acoustic-guitar" viewBox="0 0 25.917 25.917">
<title>acoustic-guitar</title>
<g>
	<path d="M9.547,20.221c0.118,0.119,0.118,0.31,0,0.428l-0.642,0.643c-0.118,0.117-0.311,0.117-0.428,0
		L4.625,17.44c-0.119-0.119-0.119-0.311,0-0.429l0.642-0.642c0.118-0.119,0.31-0.119,0.428,0L9.547,20.221z M25.917,2.413v0.003
		c0,0.256-0.098,0.511-0.293,0.706l-0.421,0.421l0.164,0.164c0.205,0.206,0.205,0.538,0,0.744c-0.102,0.102-0.237,0.153-0.372,0.153
		s-0.269-0.05-0.372-0.153l-0.164-0.164l-0.256,0.256l0.164,0.164c0.205,0.206,0.205,0.538,0,0.744
		c-0.102,0.102-0.237,0.153-0.372,0.153s-0.269-0.05-0.372-0.153l-0.164-0.164l-0.198,0.198c-0.259,0.259-0.622,0.329-0.952,0.245
		l-4.357,4.357c1.146,1.31,2.575,3.602,1.088,5.774c-1.014,1.483-2.584,1.178-3.474,2.103c-1.001,1.042-0.2,3.903-2.817,6.52
		c-0.985,0.985-2.11,1.433-3.301,1.433c-1.977,0-4.136-1.235-6.134-3.313c-3.332-3.203-4.498-6.82-1.881-9.436
		C4.05,10.55,6.909,11.351,7.95,10.35c0.927-0.89,0.642-2.44,2.124-3.453c0.668-0.457,1.347-0.64,2.004-0.64
		c1.479,0,2.849,0.921,3.752,1.71l4.358-4.358c-0.085-0.331-0.014-0.693,0.245-0.952l0.198-0.198l-0.164-0.164
		c-0.205-0.206-0.205-0.538,0-0.744c0.205-0.205,0.539-0.205,0.744,0l0.164,0.164l0.256-0.256l-0.164-0.164
		c-0.205-0.206-0.205-0.538,0-0.744c0.205-0.205,0.539-0.205,0.744,0l0.164,0.164l0.421-0.421c0.195-0.195,0.451-0.293,0.707-0.293
		h0.003c0.256,0,0.511,0.098,0.705,0.293l1.414,1.414C25.819,1.902,25.917,2.157,25.917,2.413z M16.96,11.079l-3.359,3.359
		c0.007,0.073,0.022,0.144,0.022,0.219c0,1.306-1.058,2.364-2.364,2.364s-2.364-1.058-2.364-2.364s1.058-2.364,2.364-2.364
		c0.076,0,0.148,0.015,0.223,0.022l3.356-3.357c-0.777-0.662-1.799-1.302-2.76-1.302c-0.428,0-0.825,0.129-1.214,0.395
		c-0.454,0.31-0.601,0.681-0.841,1.363c-0.209,0.595-0.47,1.336-1.104,1.944c-0.7,0.674-1.617,0.84-2.588,1.016
		c-1.218,0.221-2.598,0.471-3.908,1.782c-0.697,0.699-1.032,1.465-1.023,2.346c0.015,1.51,1.039,3.319,2.884,5.091
		c0.014,0.013,0.026,0.026,0.039,0.04c1.788,1.86,3.608,2.884,5.125,2.884c0.867,0,1.623-0.335,2.311-1.023
		c1.31-1.309,1.56-2.691,1.782-3.91c0.176-0.971,0.342-1.888,1.016-2.589c0.614-0.639,1.364-0.895,1.966-1.1
		c0.684-0.233,1.056-0.376,1.362-0.823C18.826,13.697,17.827,12.086,16.96,11.079z M21.652,3.689l2-2
		c0.117-0.117,0.117-0.307,0-0.424s-0.307-0.117-0.424,0l-2,2c-0.117,0.117-0.117,0.307,0,0.424
		c0.059,0.059,0.135,0.088,0.212,0.088C21.518,3.777,21.594,3.748,21.652,3.689z M24.652,2.265c-0.117-0.117-0.307-0.117-0.424,0
		l-2,2c-0.117,0.117-0.117,0.307,0,0.424c0.059,0.059,0.135,0.088,0.212,0.088s0.153-0.029,0.212-0.088l2-2
		C24.77,2.572,24.769,2.382,24.652,2.265z"/>
</g>
<g>
</g>
<g>
</g>
<g>
</g>
<g>
</g>
<g>
</g>
<g>
</g>
<g>
</g>
<g>
</g>
<g>
</g>
<g>
</g>
<g>
</g>
<g>
</g>
<g>
</g>
<g>
</g>
<g>
</g>
</symbol>

<symbol id="icon-linked-in" viewBox="0 0 430.117 430.117">
<title>LinkedIn</title>
<g>
	<path id="LinkedIn" d="M430.117,261.543V420.56h-92.188V272.193c0-37.271-13.334-62.707-46.703-62.707
		c-25.473,0-40.632,17.142-47.301,33.724c-2.432,5.928-3.058,14.179-3.058,22.477V420.56h-92.219c0,0,1.242-251.285,0-277.32h92.21
		v39.309c-0.187,0.294-0.43,0.611-0.606,0.896h0.606v-0.896c12.251-18.869,34.13-45.824,83.102-45.824
		C384.633,136.724,430.117,176.361,430.117,261.543z M52.183,9.558C20.635,9.558,0,30.251,0,57.463
		c0,26.619,20.038,47.94,50.959,47.94h0.616c32.159,0,52.159-21.317,52.159-47.94C103.128,30.251,83.734,9.558,52.183,9.558z
		 M5.477,420.56h92.184v-277.32H5.477V420.56z"/>
</g>
<g>
</g>
<g>
</g>
<g>
</g>
<g>
</g>
<g>
</g>
<g>
</g>
<g>
</g>
<g>
</g>
<g>
</g>
<g>
</g>
<g>
</g>
<g>
</g>
<g>
</g>
<g>
</g>
<g>
</g>
</symbol>

</defs>
</svg>
